<?xml version="1.0" standalone="no"?>
<!DOCTYPE svg PUBLIC "-//W3C//DTD SVG 20010904//EN"
 "http://www.w3.org/TR/2001/REC-SVG-20010904/DTD/svg10.dtd">
<svg version="1.0" xmlns="http://www.w3.org/2000/svg"
 width="810.000000pt" height="810.000000pt" viewBox="0 0 810.000000 810.000000"
 preserveAspectRatio="xMidYMid meet">

<g transform="translate(0.000000,810.000000) scale(0.100000,-0.100000)"
fill="#000000" stroke="none">
<path d="M4695 7458 c-28 -96 -39 -227 -26 -314 14 -98 30 -124 74 -123 l32 1
-27 11 c-34 13 -36 24 -44 187 -6 123 2 224 21 273 4 10 3 17 -4 17 -5 0 -17
-24 -26 -52z"/>
<path d="M4557 7428 c-34 -45 -50 -110 -42 -172 19 -152 57 -289 91 -327 18
-20 91 -28 79 -9 -3 6 -15 10 -25 10 -11 0 -26 10 -34 23 -14 23 -69 245 -81
329 -7 55 8 121 35 148 11 11 15 22 10 25 -5 3 -20 -9 -33 -27z"/>
<path d="M4916 7310 c-38 -34 -76 -103 -76 -139 0 -29 16 -19 25 16 10 41 53
93 88 108 43 18 68 4 103 -58 23 -40 36 -53 57 -55 31 -4 92 30 108 60 16 30
4 33 -33 5 -54 -40 -67 -41 -86 -5 -9 17 -30 46 -46 64 -38 46 -90 47 -140 4z"/>
<path d="M3924 7248 c-16 -36 -19 -67 -19 -185 l0 -143 -80 0 c-121 0 -147
-27 -160 -165 -14 -141 24 -195 140 -195 42 0 75 7 111 24 52 24 86 55 48 44
-137 -41 -153 -43 -196 -28 -59 21 -70 46 -64 146 8 131 21 145 152 159 l60 7
12 -54 c7 -29 21 -68 32 -86 17 -28 26 -33 52 -30 25 2 38 13 65 53 45 67 83
107 96 102 6 -2 23 -26 37 -53 15 -29 33 -50 45 -53 19 -3 19 -2 4 15 -9 11
-23 37 -30 58 -31 87 -81 81 -161 -19 -27 -33 -53 -62 -58 -63 -29 -10 -82
207 -84 338 0 73 3 102 17 127 19 36 21 43 9 43 -5 0 -18 -19 -28 -42z"/>
<path d="M4358 7021 c-4 -64 6 -121 23 -132 17 -10 63 -12 72 -2 4 4 -6 12
-21 19 -23 9 -32 22 -41 57 -6 25 -11 57 -11 71 0 47 -18 36 -22 -13z"/>
<path d="M2135 6344 c-27 -7 -62 -23 -77 -34 -15 -11 -30 -20 -34 -20 -4 0
-18 -9 -30 -21 -12 -11 -28 -21 -36 -23 -29 -4 -66 -36 -76 -65 -14 -41 3 -51
32 -19 39 45 119 102 145 104 26 2 145 66 156 84 8 13 -18 11 -80 -6z"/>
<path d="M2266 6334 c-48 -17 -70 -34 -58 -46 8 -8 99 24 137 49 18 12 18 13
-10 12 -17 0 -48 -7 -69 -15z"/>
<path d="M2416 6329 c-52 -8 -72 -21 -62 -38 5 -7 15 -7 32 -1 14 6 37 10 52
10 26 1 89 29 65 30 -6 0 -17 2 -25 4 -7 2 -35 0 -62 -5z"/>
<path d="M2440 6270 c0 -7 -8 -19 -17 -26 -16 -11 -13 -15 28 -33 25 -11 63
-26 84 -33 24 -8 39 -20 41 -32 4 -29 37 -68 74 -90 l32 -19 -11 21 -12 22 33
-20 c36 -22 68 -26 68 -9 0 6 -9 13 -20 16 -11 3 -20 9 -20 13 0 5 -9 12 -20
15 -11 3 -20 15 -20 26 0 10 -9 24 -19 31 -10 6 -17 17 -14 23 5 16 -69 47
-78 33 -7 -11 -99 19 -99 31 0 4 17 5 38 4 20 -1 48 0 62 3 37 8 8 20 -67 29
-47 5 -63 4 -63 -5z"/>
<path d="M2290 6205 c-25 -25 -42 -45 -38 -45 4 0 -9 -17 -27 -37 -19 -21 -35
-42 -35 -47 0 -5 -6 -17 -14 -25 -8 -9 -23 -38 -34 -65 l-19 -50 -11 35 c-6
19 -16 66 -22 104 -16 106 -21 125 -32 125 -12 0 -5 -95 14 -193 6 -32 8 -60
5 -63 -8 -8 -67 29 -97 61 -36 39 -60 50 -60 28 0 -9 23 -39 51 -65 l51 -48
-58 0 c-51 -1 -57 -2 -42 -14 11 -8 50 -14 100 -15 46 -1 87 -6 92 -11 9 -9
76 19 76 32 0 5 -7 11 -15 14 -19 8 -19 35 0 60 14 18 14 18 15 -9 0 -36 23
-31 30 7 7 37 65 93 120 117 25 11 63 29 85 40 l40 20 -48 -6 c-54 -5 -104
-29 -172 -80 l-47 -37 28 39 c15 21 37 48 48 61 11 12 17 22 13 22 -3 0 5 12
19 28 30 31 48 62 37 62 -4 -1 -28 -21 -53 -45z"/>
<path d="M2680 6237 c0 -17 25 -26 95 -33 28 -3 75 -12 105 -19 204 -51 252
-58 420 -55 91 1 206 2 255 3 72 1 96 -3 118 -18 37 -24 95 -112 134 -203 29
-65 82 -155 212 -360 57 -91 160 -213 193 -231 27 -14 32 -35 44 -176 8 -95
-14 -122 -182 -220 l-138 -81 -89 59 c-84 56 -101 76 -121 140 -3 9 -10 17
-15 17 -12 0 -20 -41 -20 -108 -1 -49 -27 -122 -50 -136 -14 -9 -34 -112 -26
-136 9 -30 22 -16 30 33 8 52 25 97 36 97 12 0 18 -33 22 -125 2 -44 14 -114
26 -155 21 -70 29 -114 30 -167 1 -14 7 -23 16 -23 25 0 18 90 -15 202 -22 75
-30 121 -30 180 0 51 -5 89 -15 108 -9 18 -11 31 -5 35 6 3 10 19 10 34 0 38
8 43 39 22 14 -10 52 -35 85 -55 32 -21 61 -46 63 -57 3 -11 10 -19 17 -18 6
1 20 -2 32 -6 18 -6 20 -15 21 -88 0 -56 8 -110 25 -172 26 -90 131 -368 147
-389 4 -6 11 -24 15 -40 4 -17 23 -45 42 -63 34 -32 35 -34 40 -135 4 -57 12
-126 20 -153 14 -48 21 -181 11 -191 -5 -5 -112 -10 -444 -19 -142 -5 -233
-11 -233 -17 0 -5 9 -12 20 -15 14 -4 20 -14 20 -32 0 -37 17 -51 63 -51 66 0
99 34 65 68 -9 9 -4 12 24 12 32 0 36 -3 42 -32 4 -18 4 -109 1 -203 -3 -93
-7 -257 -10 -364 -2 -106 -7 -196 -9 -199 -3 -2 -12 3 -22 12 -13 14 -35 16
-132 14 -122 -3 -144 -13 -99 -43 18 -11 56 -17 138 -20 63 -2 116 -4 120 -4
3 -1 5 -13 5 -28 0 -16 3 -121 8 -236 6 -142 12 -207 20 -207 8 0 11 175 10
654 l-1 654 106 6 c58 3 152 8 209 11 l102 4 0 -45 c0 -38 5 -51 30 -74 34
-31 37 -40 15 -40 -15 0 -34 -28 -40 -61 -5 -23 37 -54 60 -45 21 8 19 23 -5
31 -24 8 -25 22 -4 46 16 17 18 16 55 -30 36 -45 107 -101 129 -101 22 0 8 26
-26 49 -45 31 -111 106 -132 149 -9 17 -22 32 -29 32 -15 0 -14 -2 -14 135 0
55 -6 127 -14 160 -8 33 -17 94 -20 135 -7 88 -21 189 -35 245 -5 22 -6 60 -3
84 5 34 3 43 -8 39 -18 -6 -30 -63 -24 -118 l5 -45 -34 70 c-38 80 -58 126
-62 140 -1 6 -20 56 -42 113 -36 90 -54 159 -76 289 -3 17 -1 45 4 61 6 25 4
34 -11 48 -33 30 -22 47 62 94 44 25 103 60 131 78 l52 33 17 -23 c23 -30 33
-19 22 24 -5 18 -6 44 -2 58 11 39 10 137 -2 186 -9 33 -8 48 0 58 16 19 3 46
-23 46 -29 0 -120 94 -183 190 -109 164 -216 344 -240 403 -29 71 -79 151
-120 188 -48 45 -90 53 -247 44 -264 -14 -321 -10 -506 35 -63 15 -137 31
-165 34 -27 4 -65 9 -82 12 -24 4 -33 1 -33 -9z m1044 -2753 c28 -11 17 -20
-19 -16 -19 2 -32 8 -29 13 6 10 26 12 48 3z"/>
<path d="M1798 6163 c-32 -32 -61 -69 -67 -83 -8 -19 -10 -21 -10 -6 -1 16 -3
16 -17 6 -8 -8 -21 -28 -29 -46 -7 -17 -29 -50 -49 -72 -29 -32 -36 -48 -37
-83 0 -42 -3 -46 -61 -89 -75 -56 -175 -197 -209 -296 -29 -85 -32 -205 -6
-274 13 -36 17 -82 17 -238 l0 -192 43 -47 c23 -25 65 -63 92 -83 38 -28 55
-49 68 -86 30 -80 93 -273 117 -356 21 -72 43 -109 56 -95 3 3 -4 36 -16 74
-12 37 -23 76 -25 86 -8 39 -97 293 -106 301 -19 20 -8 25 25 11 98 -41 319
-51 387 -17 l37 18 7 -90 c3 -50 8 -118 10 -150 5 -61 10 -75 23 -62 7 8 5
206 -3 256 -2 14 -6 43 -9 65 -3 22 0 78 8 125 8 47 11 89 7 93 -17 17 -31
-24 -43 -120 l-11 -100 -49 -12 c-61 -14 -198 -14 -268 -1 -84 16 -198 78
-262 142 l-58 58 1 102 c0 57 3 96 6 88 3 -8 25 -36 48 -61 24 -25 50 -60 59
-77 9 -17 25 -36 36 -42 17 -9 19 -7 17 25 -2 22 -13 45 -30 63 -34 36 -99
192 -106 257 -5 38 -10 49 -21 48 -52 -9 -52 298 -1 315 7 2 33 26 58 53 25
27 49 49 53 49 4 0 18 -30 32 -67 28 -76 55 -99 45 -39 l-6 37 34 -21 c49 -30
68 -14 25 21 l-33 28 23 9 c20 7 24 17 26 53 1 24 -2 52 -8 62 -7 13 -7 26 0
41 13 25 22 66 29 124 3 27 10 42 19 42 8 0 14 3 15 8 3 30 11 66 19 85 l9 22
0 -22 c2 -42 27 -24 40 28 10 36 16 48 24 40 16 -16 24 -13 30 12 2 12 16 48
31 80 14 31 25 57 23 57 -1 0 -28 -26 -59 -57z m-229 -465 c0 -59 -4 -89 -14
-102 -8 -11 -16 -18 -18 -15 -10 14 -27 63 -27 79 0 11 -7 20 -15 20 -8 0 -15
-4 -15 -9 0 -5 -14 -20 -32 -33 l-32 -22 38 54 c30 43 98 110 111 110 2 0 3
-37 4 -82z"/>
<path d="M2367 6018 c-78 -9 -137 -31 -137 -51 0 -11 12 -10 68 4 37 10 85 18
107 19 50 1 177 27 150 30 -54 6 -127 6 -188 -2z"/>
<path d="M2655 6015 c-5 -2 -50 -15 -100 -30 -126 -38 -364 -163 -540 -284
-22 -15 -71 -45 -110 -66 -38 -21 -97 -56 -130 -78 -33 -23 -76 -46 -95 -53
-59 -20 -75 -53 -75 -149 1 -79 3 -87 34 -132 69 -98 86 -110 161 -118 60 -6
71 -11 106 -44 44 -43 98 -74 121 -69 10 2 -7 19 -45 46 -34 24 -67 53 -73 65
-7 12 -15 24 -19 27 -19 13 -40 73 -40 113 0 48 18 71 80 102 19 10 87 52 150
94 63 42 135 89 160 103 179 103 290 158 320 158 14 0 34 9 44 21 12 14 24 19
39 15 12 -3 35 -6 50 -6 17 0 30 -7 34 -17 3 -10 27 -40 53 -68 41 -43 49 -59
60 -116 15 -75 10 -99 -20 -99 -11 0 -20 -7 -20 -15 0 -24 -20 -17 -30 10 -5
14 -12 25 -14 25 -12 0 -38 -71 -46 -125 -12 -78 -14 -84 -33 -125 l-16 -35 5
55 c2 30 7 75 10 98 6 39 5 44 -12 40 -16 -3 -19 -14 -22 -68 -4 -75 -16 -98
-26 -45 -4 20 -13 38 -20 41 -8 3 -16 18 -20 35 -8 42 -26 36 -27 -11 -1 -22
-3 -44 -4 -50 -1 -5 -3 -28 -4 -50 0 -22 -5 -40 -10 -40 -6 0 -9 10 -9 23 4
74 -3 117 -18 117 -15 0 -16 -10 -11 -72 5 -70 5 -72 -9 -40 -14 33 -34 43
-34 18 0 -7 7 -33 15 -56 20 -58 19 -83 -7 -122 l-23 -34 0 121 c0 96 -3 120
-14 120 -18 0 -22 -21 -21 -132 1 -80 -3 -99 -25 -143 -14 -27 -30 -50 -36
-50 -6 0 -9 7 -6 15 9 21 11 225 3 233 -13 12 -26 -23 -26 -73 -1 -61 -14
-124 -31 -139 -9 -8 -10 -6 -4 9 4 11 9 52 11 92 3 60 0 72 -14 78 -9 3 -19 6
-22 6 -3 -1 -6 -36 -7 -79 0 -42 -1 -83 -2 -89 -2 -20 -28 -15 -50 8 -12 13
-26 19 -36 16 -8 -4 -28 -2 -43 4 -25 10 -26 12 -7 19 20 8 20 8 1 16 -17 6
-13 9 20 19 l39 11 -40 13 c-37 13 -105 55 -154 98 -12 10 -26 35 -32 55 -9
36 -28 52 -30 26 -2 -25 3 -53 11 -62 5 -5 3 -17 -3 -27 -16 -26 9 -67 63
-101 25 -15 59 -40 75 -56 17 -15 40 -35 53 -44 19 -13 25 -30 33 -89 6 -41
19 -98 29 -126 14 -41 15 -53 6 -53 -25 0 -66 41 -66 66 0 15 -6 24 -15 24
-10 0 -15 -10 -15 -29 0 -34 41 -79 79 -87 14 -3 31 -7 38 -9 7 -2 22 -36 34
-76 20 -67 21 -73 5 -99 -23 -39 -20 -89 6 -117 21 -23 21 -24 5 -96 -17 -77
-20 -100 -18 -162 2 -53 17 -29 26 40 11 75 21 86 30 29 9 -66 44 -192 62
-227 8 -16 18 -47 21 -70 11 -63 27 -41 25 35 -1 46 -11 89 -32 145 -19 49
-31 96 -31 127 l0 49 44 -41 c24 -22 57 -47 72 -55 123 -62 508 -140 529 -107
3 5 83 9 193 8 110 0 214 4 251 11 94 18 189 70 243 132 42 49 45 50 41 23 -3
-16 12 -110 33 -209 26 -125 39 -218 43 -305 7 -157 25 -166 29 -15 2 95 -3
138 -37 310 -23 120 -37 215 -34 238 4 25 1 37 -7 37 -8 0 -9 4 -3 13 6 6 13
20 16 30 13 37 -14 14 -75 -63 -54 -69 -73 -86 -133 -116 -41 -20 -98 -39
-135 -45 -73 -10 -377 -13 -417 -3 -23 6 -25 5 -20 -15 4 -16 2 -21 -7 -18 -8
3 -35 8 -62 12 -150 21 -398 84 -361 93 14 3 16 7 6 18 -6 8 -17 14 -23 14 -7
0 -22 9 -34 20 -17 16 -21 30 -19 68 2 43 -1 51 -33 79 -19 17 -38 29 -42 27
-16 -10 -7 -34 17 -50 21 -14 25 -24 25 -67 0 -33 6 -57 17 -69 36 -40 -8 -15
-62 36 -55 51 -58 56 -61 110 -2 30 -11 84 -20 118 -8 35 -21 92 -28 128 -7
36 -34 127 -60 203 -26 76 -45 141 -42 145 2 4 25 6 50 4 40 -4 44 -6 31 -19
-14 -13 -13 -17 8 -33 13 -11 47 -28 75 -39 27 -11 62 -31 76 -45 22 -23 34
-26 90 -26 36 0 68 -5 71 -11 13 -19 185 10 185 32 0 17 -31 22 -68 11 -29 -9
-39 -9 -53 4 -12 11 -22 12 -43 4 -30 -11 -139 -14 -149 -3 -4 3 2 13 13 20
18 13 24 13 46 -1 22 -15 25 -15 30 -1 4 9 13 13 23 11 21 -7 40 5 54 34 7 13
27 29 46 35 39 13 53 35 24 35 -19 0 -100 -24 -138 -40 -11 -5 -37 -16 -59
-24 -28 -12 -37 -20 -32 -32 5 -12 2 -15 -11 -9 -10 4 -30 11 -44 15 -14 4
-37 13 -49 20 l-23 12 32 14 c17 7 34 20 37 29 4 8 18 15 34 15 58 0 140 61
250 188 11 12 25 22 32 22 9 0 9 -3 0 -12 -22 -22 -12 -27 25 -12 80 34 173
157 173 231 l0 26 20 -25 c21 -27 43 -82 67 -168 8 -30 20 -61 25 -68 16 -19
32 1 20 24 -5 11 -13 39 -17 64 -4 25 -13 57 -20 71 -8 15 -11 42 -8 67 4 28
1 48 -8 59 -13 16 -12 17 4 4 15 -12 17 -11 17 6 0 11 -9 45 -19 75 -20 57
-21 108 -4 130 5 7 13 21 16 30 6 17 20 120 20 148 0 72 -4 80 -61 139 -49 50
-65 60 -104 66 -54 8 -84 3 -80 -13 2 -14 -25 -16 -30 -2 -3 10 -76 22 -93 15z
m57 -49 c-2 -19 5 -64 17 -100 34 -106 35 -105 -61 -103 -91 2 -79 6 -263 -92
-132 -71 -198 -110 -330 -196 -116 -75 -213 -135 -221 -135 -2 0 -4 11 -4 24
0 42 -19 80 -56 112 l-36 31 68 42 c38 24 94 57 124 75 30 18 116 70 190 116
132 81 360 205 360 196 0 -3 26 4 58 15 31 11 80 26 107 34 28 7 50 14 50 14
1 1 -1 -15 -3 -33z m183 -28 c72 -24 106 -136 76 -246 l-12 -42 -42 6 c-42 7
-115 39 -152 68 -18 14 -18 15 -2 16 30 0 30 26 2 115 -15 46 -25 91 -22 98 6
16 83 8 152 -15z m27 -316 c11 -4 14 -12 10 -19 -6 -10 -15 -10 -40 -1 -18 7
-32 16 -32 20 0 10 38 9 62 0z m19 -74 c1 -7 3 -35 4 -63 1 -27 5 -61 9 -75 7
-24 6 -24 -9 2 -20 35 -32 148 -16 148 6 0 12 -6 12 -12z m-1177 -92 c27 -11
35 -22 45 -59 15 -61 14 -89 -4 -113 -19 -25 -19 -44 1 -44 11 0 14 -9 12 -37
-2 -20 -9 -38 -16 -41 -19 -6 -160 136 -167 169 -9 39 3 106 22 124 18 19 64
19 107 1z m1108 -110 c-4 -39 -23 -84 -29 -68 -9 24 8 103 20 99 7 -2 11 -16
9 -31z m-95 -8 c-3 -7 -5 -2 -5 12 0 14 2 19 5 13 2 -7 2 -19 0 -25z m-23
-133 c-14 -19 -28 -35 -30 -35 -2 0 6 16 17 35 12 19 25 35 30 35 6 0 -2 -16
-17 -35z m-161 -19 c5 -37 -6 -84 -21 -96 -4 -3 -14 -18 -22 -34 -16 -31 -40
-47 -36 -24 1 7 11 33 23 58 12 25 25 63 29 85 10 68 19 71 27 11z m-577 -84
c-4 -3 -14 2 -24 12 -16 18 -16 18 6 6 13 -6 21 -14 18 -18z"/>
<path d="M3050 5896 c0 -10 15 -17 43 -20 158 -19 250 -26 377 -27 l145 -2 92
-44 c98 -47 182 -69 153 -41 -8 9 -65 38 -126 66 l-111 51 -129 1 c-71 0 -151
3 -179 5 -27 3 -94 10 -149 15 -123 12 -116 13 -116 -4z"/>
<path d="M3139 5803 c-1 -5 -3 -17 -4 -28 -9 -64 -18 -123 -22 -140 -2 -11 -7
-39 -10 -63 -3 -23 -10 -45 -14 -48 -5 -3 -9 -14 -9 -25 0 -10 -4 -28 -10 -39
-19 -37 -33 -65 -49 -92 -22 -39 -4 -48 25 -13 41 52 92 213 108 345 3 25 8
60 12 78 5 26 3 32 -10 32 -9 0 -17 -3 -17 -7z"/>
<path d="M3280 5784 c0 -3 9 -17 20 -31 11 -14 22 -41 25 -62 3 -20 10 -50 16
-68 8 -27 6 -38 -16 -73 -34 -54 -41 -92 -21 -109 21 -18 28 -10 30 31 1 34
50 124 94 175 23 26 68 90 87 123 15 26 -50 -33 -81 -73 -63 -82 -63 -82 -75
-6 -8 52 -40 99 -66 99 -7 0 -13 -3 -13 -6z"/>
<path d="M2601 5685 c5 -22 59 -43 113 -44 48 -1 44 4 -25 30 -88 33 -91 34
-88 14z"/>
<path d="M2435 5629 c-10 -14 -1 -21 19 -13 9 3 13 10 10 15 -7 12 -21 11 -29
-2z"/>
<path d="M3787 5572 c-4 -36 -24 -100 -52 -166 -26 -59 -44 -110 -41 -113 16
-16 57 57 100 177 29 79 35 160 12 160 -9 0 -15 -19 -19 -58z"/>
<path d="M3706 5478 c-15 -32 -38 -98 -51 -147 -13 -49 -36 -118 -50 -152 -14
-34 -25 -70 -25 -80 0 -21 17 -34 22 -18 2 7 16 5 41 -7 54 -26 69 -5 20 27
-22 15 -36 32 -34 40 2 8 28 93 58 189 56 186 64 242 19 148z"/>
<path d="M3606 5443 c-3 -27 -8 -77 -11 -113 -4 -36 -19 -103 -35 -149 -16
-46 -26 -90 -23 -97 9 -24 33 -16 33 11 0 14 7 42 16 63 22 50 44 181 44 265
0 77 -15 90 -24 20z"/>
<path d="M3450 5234 c-13 -33 -13 -48 1 -95 13 -40 59 -103 88 -119 13 -6 24
-5 37 5 18 13 17 15 -14 26 -45 15 -84 84 -82 141 1 24 1 49 1 56 -2 21 -21
13 -31 -14z"/>
<path d="M2877 5155 c-54 -56 -77 -98 -63 -112 3 -3 14 1 23 9 10 9 24 13 31
11 8 -3 16 4 19 16 6 24 14 26 31 9 9 -9 15 -9 25 1 10 11 10 14 0 18 -23 8
-14 28 18 40 32 12 32 33 -1 33 -10 0 -20 8 -22 18 -3 13 -17 3 -61 -43z"/>
<path d="M2990 5083 c-18 -49 -55 -122 -62 -123 -4 0 -10 9 -13 21 -14 42 -30
12 -31 -57 0 -39 -4 -76 -8 -82 -10 -16 -27 -15 -23 1 1 7 -9 12 -28 12 -16 0
-36 4 -43 8 -19 13 -27 -23 -11 -52 10 -18 24 -27 48 -29 60 -6 88 28 106 131
4 27 11 37 24 37 19 0 67 85 73 129 4 35 -20 38 -32 4z"/>
<path d="M1725 5090 c-9 -15 55 -90 95 -114 38 -22 35 -15 -30 67 -46 59 -54
64 -65 47z"/>
<path d="M3022 4978 c-12 -29 -22 -57 -22 -61 0 -5 -9 -22 -21 -39 -23 -32
-18 -48 9 -32 18 11 79 126 84 159 2 11 -3 21 -12 22 -10 2 -23 -15 -38 -49z"/>
<path d="M3542 4976 c-14 -23 -62 -62 -150 -120 -127 -83 -168 -120 -197 -177
-19 -35 -2 -48 22 -18 61 75 89 99 203 175 90 60 132 94 146 119 13 25 15 38
8 45 -8 8 -17 1 -32 -24z"/>
<path d="M2756 4945 c-7 -18 34 -49 48 -35 6 6 3 17 -9 30 -22 24 -31 25 -39
5z"/>
<path d="M1835 4918 c-62 -19 -78 -29 -68 -39 11 -11 99 7 109 23 11 17 -10
26 -41 16z"/>
<path d="M1896 4893 c-4 -4 -26 -12 -49 -18 -22 -5 -43 -16 -45 -24 -4 -11 4
-13 41 -8 50 7 89 26 84 41 -4 13 -22 18 -31 9z"/>
<path d="M4335 4889 c-14 -21 6 -115 41 -199 20 -47 44 -105 54 -130 10 -25
25 -114 35 -200 9 -85 25 -198 35 -250 10 -52 21 -115 25 -140 10 -70 37 -139
57 -146 10 -3 20 -19 24 -39 5 -30 50 -99 92 -144 17 -18 74 -56 114 -77 20
-10 27 -19 19 -23 -18 -11 -3 -40 50 -97 54 -58 56 -63 63 -192 6 -109 -10
-123 -30 -26 -7 33 -19 82 -28 108 -9 26 -16 57 -16 69 0 30 -13 48 -28 38
-10 -6 -10 -18 -3 -49 5 -23 8 -42 6 -42 -2 0 -17 28 -35 63 -37 71 -54 92
-68 83 -7 -4 2 -29 22 -65 19 -32 48 -101 65 -152 56 -168 31 -243 -38 -117
-70 128 -140 225 -210 291 -39 37 -78 67 -86 67 -18 0 -20 -27 -3 -32 8 -3 4
-9 -10 -17 -19 -10 -22 -9 -22 9 0 12 -7 20 -16 20 -12 0 -15 -9 -13 -37 4
-52 15 -72 66 -118 38 -34 46 -47 50 -86 5 -41 2 -48 -21 -66 -14 -12 -26 -26
-26 -32 0 -20 31 -11 55 15 19 21 25 38 25 73 0 51 -17 81 -68 127 -23 20 -31
34 -27 46 13 32 43 31 85 -4 43 -34 167 -213 215 -308 l27 -54 -21 -14 c-25
-17 -28 -50 -3 -59 23 -9 32 -23 32 -51 0 -15 7 -26 20 -29 16 -4 18 -9 9 -25
-6 -11 -9 -29 -6 -39 3 -10 1 -17 -3 -14 -5 3 -12 0 -16 -6 -4 -7 4 -21 20
-34 26 -21 28 -50 3 -66 -19 -13 2 -38 36 -44 l34 -7 -18 -38 c-28 -58 -25
-89 9 -102 28 -11 28 -12 15 -40 -15 -30 -9 -72 10 -65 10 3 16 26 20 80 1 9
6 17 12 17 6 0 9 -16 7 -40 -3 -31 -1 -40 11 -40 11 0 17 17 22 69 8 80 0 130
-24 151 -13 12 -15 26 -10 65 3 28 7 38 7 24 1 -15 9 -46 17 -69 25 -70 73
-277 91 -392 13 -81 21 -108 32 -108 12 0 13 11 8 58 -12 96 -33 200 -71 347
-45 171 -54 211 -54 250 -1 21 2 26 8 16 6 -9 18 -11 36 -7 21 5 26 12 23 34
-3 23 -8 27 -35 27 l-33 0 0 87 c0 81 -8 105 -26 77 -3 -6 -6 -73 -6 -149 0
-132 0 -138 -17 -122 -13 13 -17 32 -17 75 1 37 -3 57 -11 57 -17 0 -27 75
-12 101 9 18 9 24 -3 33 -8 6 -15 27 -15 48 0 32 3 36 18 27 30 -15 44 -10 58
22 24 54 -5 323 -39 364 -6 7 -52 37 -101 66 -50 30 -103 68 -117 85 -60 72
-72 91 -78 124 -9 49 -22 70 -38 64 -15 -6 -28 46 -65 256 -22 129 -28 172
-37 280 -9 111 -21 155 -66 250 -23 49 -47 120 -57 167 -16 81 -23 95 -36 72z
m575 -1400 c6 -10 10 -22 10 -28 0 -13 -46 33 -60 60 -11 20 -11 20 15 3 14
-9 30 -25 35 -35z m-47 -189 c3 -11 1 -18 -4 -14 -5 3 -9 12 -9 20 0 20 7 17
13 -6z m5 -264 c-17 -16 -58 -39 -58 -31 0 11 25 50 40 62 21 16 37 -12 18
-31z m-8 -71 c0 -8 -2 -15 -4 -15 -2 0 -6 7 -10 15 -3 8 -1 15 4 15 6 0 10 -7
10 -15z m35 -133 c-12 -13 -24 22 -12 37 10 12 13 11 15 -8 2 -13 1 -26 -3
-29z m36 -85 c-1 -4 -1 -17 -1 -29 0 -20 -1 -21 -20 -3 -15 14 -17 21 -8 32
11 14 30 14 29 0z m39 -127 c0 -5 -4 -10 -10 -10 -5 0 -10 -7 -10 -16 0 -10 5
-14 15 -10 13 5 14 2 5 -15 -16 -30 -35 -18 -38 24 -3 32 0 37 17 37 12 0 21
-4 21 -10z"/>
<path d="M4170 4838 c-38 -17 -51 -20 -102 -25 -32 -3 -48 -10 -48 -19 0 -36
158 -5 197 38 15 17 15 18 -3 17 -10 0 -30 -5 -44 -11z"/>
<path d="M3360 4768 c-5 -13 -11 -40 -15 -60 -5 -34 -22 -59 -114 -168 -32
-38 -51 -90 -32 -90 6 0 22 18 36 39 13 22 45 63 70 90 56 64 71 93 79 159 7
55 -6 72 -24 30z"/>
<path d="M2595 4660 c-14 -23 26 -69 110 -128 50 -34 105 -69 123 -78 65 -29
31 -42 -113 -42 -88 0 -124 -14 -70 -28 49 -12 210 0 238 19 15 9 45 17 69 17
54 0 40 14 -34 32 -72 18 -272 150 -289 191 -12 28 -23 34 -34 17z"/>
<path d="M2288 4624 c-14 -13 8 -46 43 -66 42 -24 48 -41 23 -77 -12 -17 -14
-25 -5 -34 17 -17 50 29 51 70 0 24 -7 37 -26 50 -15 10 -37 28 -51 41 -26 24
-27 25 -35 16z"/>
<path d="M3453 4553 c-17 -37 -16 -53 6 -89 18 -29 66 -53 79 -39 3 3 -11 21
-32 40 -26 23 -36 40 -32 51 3 9 9 27 12 40 9 34 -17 31 -33 -3z"/>
<path d="M3641 4533 c-15 -60 -21 -182 -11 -208 l7 -20 6 20 c4 11 9 48 12 82
6 80 13 121 25 143 10 19 4 30 -16 30 -6 0 -17 -21 -23 -47z"/>
<path d="M3308 4468 c-35 -42 -58 -80 -58 -95 0 -28 32 -93 69 -142 l26 -34
-110 7 c-60 4 -114 10 -120 15 -5 4 -42 20 -81 35 -51 19 -74 33 -77 47 -4 13
-12 19 -23 17 -31 -6 -27 -28 12 -63 51 -47 133 -77 221 -83 99 -6 84 -20 -17
-16 -224 6 -376 28 -488 71 -52 19 -96 32 -99 29 -26 -25 129 -87 263 -105
176 -24 454 -30 524 -12 l35 9 -50 2 -50 3 57 11 c55 11 87 26 56 26 -21 0
-118 147 -118 178 0 5 27 44 60 85 33 42 60 79 60 82 0 3 -8 5 -17 4 -10 0
-44 -32 -75 -71z"/>
<path d="M2405 4438 c-16 -42 40 -96 111 -105 55 -7 47 14 -13 34 -50 17 -59
24 -63 48 -5 31 -27 45 -35 23z"/>
<path d="M3434 4323 c12 -108 21 -146 35 -151 11 -4 12 7 8 54 -12 123 -19
154 -35 154 -12 0 -14 -10 -8 -57z"/>
<path d="M2077 4333 c-15 -14 -5 -51 29 -108 20 -33 62 -114 94 -180 32 -66
74 -142 94 -170 20 -27 36 -54 36 -58 0 -5 6 -23 14 -40 46 -104 68 -145 91
-174 l27 -32 -38 -7 c-43 -8 -492 14 -514 26 -8 4 -50 10 -93 13 -90 6 -93 4
-122 -98 -9 -33 -25 -75 -34 -95 -10 -19 -24 -57 -31 -85 -18 -75 -49 -148
-111 -270 -52 -103 -86 -189 -138 -358 -12 -37 -51 -127 -87 -200 -84 -169
-136 -293 -184 -437 -21 -63 -55 -155 -75 -203 -39 -97 -39 -127 1 -127 25 0
29 -11 25 -60 -2 -14 3 -48 10 -77 9 -38 16 -50 26 -46 12 5 13 15 8 47 -7 42
-8 62 -6 106 l1 25 958 -2 c1474 -2 1332 0 1332 -23 0 -11 -20 -46 -45 -78
-25 -31 -45 -60 -45 -64 0 -17 30 -6 48 17 25 31 30 31 42 0 15 -40 40 -32 33
10 -7 43 5 59 65 85 59 26 61 26 53 -12 -12 -55 -8 -103 9 -103 11 0 16 14 18
50 6 92 46 103 192 54 36 -11 90 -27 120 -34 30 -8 82 -21 115 -30 80 -23 142
-15 238 29 82 38 99 58 112 137 5 31 9 36 25 32 26 -7 26 12 0 30 -14 10 -18
22 -16 44 6 42 -6 55 -45 51 -33 -3 -34 -4 -34 -47 0 -41 7 -52 43 -67 7 -4
-22 -101 -36 -116 -8 -10 -31 -23 -51 -29 -20 -7 -46 -19 -58 -26 -51 -34
-145 -20 -398 57 -109 33 -233 40 -290 15 -21 -8 -44 -15 -51 -15 -20 0 -17
30 4 46 10 9 13 17 7 21 -12 10 -2 796 14 998 6 77 15 210 20 295 6 85 15 169
20 185 5 17 12 66 14 110 3 48 12 95 23 118 22 46 11 59 -48 55 -24 -1 -44 4
-57 16 -24 22 -112 24 -145 3 -15 -10 -52 -12 -129 -10 -62 2 -117 -2 -128 -7
-14 -8 -37 -7 -82 4 -98 24 -270 46 -357 46 l-78 0 -46 52 c-28 32 -56 80 -74
127 -30 75 -34 88 -46 144 -4 18 -13 27 -26 27 -21 0 -50 46 -50 79 0 11 -6
24 -14 28 -8 4 -48 75 -90 157 -83 164 -80 159 -89 149z m-245 -772 c7 -6 -19
-93 -36 -119 -13 -21 0 -26 79 -28 67 -2 76 0 90 19 18 26 20 88 3 105 -9 9
-3 12 27 12 75 0 81 -5 79 -63 l-2 -52 -101 -54 c-122 -65 -205 -130 -248
-195 -18 -26 -47 -58 -65 -70 -67 -45 -118 -176 -118 -304 0 -135 59 -275 143
-343 45 -37 158 -90 242 -114 33 -10 101 -31 152 -47 90 -29 96 -30 260 -26
218 6 386 39 355 70 -6 6 -34 4 -72 -6 -68 -18 -87 -20 -52 -6 26 11 31 44 5
36 -77 -21 -233 -22 -363 -2 -103 15 -111 17 -155 35 -16 7 -57 19 -91 27 -80
18 -125 37 -187 81 -80 55 -97 73 -127 138 l-28 60 -1 -38 c-1 -49 17 -84 71
-133 65 -59 135 -100 213 -123 39 -12 106 -33 150 -46 96 -31 227 -48 355 -48
75 0 86 -1 55 -8 -22 -4 -97 -8 -168 -8 -105 -1 -137 3 -185 20 -31 11 -90 29
-130 40 -103 26 -234 85 -281 126 -137 117 -171 356 -76 532 30 54 43 62 25
15 -6 -15 -12 -91 -13 -169 l-2 -140 34 -68 c28 -59 42 -74 92 -107 71 -45
289 -133 374 -150 33 -7 152 -15 265 -17 113 -3 233 -8 266 -10 50 -4 62 -2
67 11 11 28 -10 62 -45 76 -79 31 -195 84 -219 101 -14 10 -57 30 -95 44 -38
14 -78 35 -91 46 -12 12 -26 19 -31 15 -28 -17 -92 101 -92 170 0 34 -10 54
-29 55 -10 0 -11 2 -3 6 16 6 15 18 -4 38 -20 20 -47 2 -39 -26 5 -16 2 -18
-24 -13 -38 8 -161 -32 -161 -52 0 -19 15 -18 76 5 28 11 59 18 70 17 19 -3
54 -62 59 -101 5 -42 19 -81 40 -115 28 -44 133 -108 239 -144 75 -25 121 -51
156 -85 13 -13 -7 -14 -155 -8 -209 8 -262 17 -393 68 -222 86 -263 113 -303
204 -16 36 -20 67 -20 165 0 66 5 139 12 162 28 105 98 199 200 268 66 45 286
157 383 195 173 67 368 70 659 10 111 -24 336 -145 362 -195 23 -45 46 -162
44 -225 -1 -33 -11 -84 -21 -114 -10 -30 -18 -62 -18 -71 0 -40 -55 -135 -109
-189 -109 -108 -290 -210 -375 -211 -12 0 -30 -7 -40 -15 -28 -21 -9 -38 30
-26 16 5 61 19 101 31 147 45 334 194 389 309 28 59 70 211 77 278 2 23 -1 71
-8 107 -14 74 -7 76 36 8 23 -37 29 -57 29 -101 -1 -33 -7 -64 -15 -75 -8 -11
-15 -28 -15 -38 0 -20 -101 -216 -128 -249 -31 -38 -65 -69 -189 -171 -68 -55
-120 -105 -117 -110 3 -5 13 -7 21 -4 9 4 21 2 28 -4 16 -13 106 48 222 152
104 93 134 132 169 215 15 38 30 71 33 75 3 4 3 -39 -1 -95 -4 -56 -10 -293
-13 -527 -4 -234 -11 -441 -15 -460 l-9 -35 -943 -3 c-1099 -3 -1408 2 -1408
25 0 9 18 57 39 107 21 50 48 123 60 161 34 112 87 237 177 423 46 95 91 199
100 230 39 138 76 236 127 333 60 114 99 209 117 279 11 46 13 51 48 131 11
25 24 63 28 85 3 21 8 42 10 46 5 8 75 -1 86 -11z m419 -46 c-41 -18 -41 -18
-41 0 0 11 11 15 38 15 l37 -1 -34 -14z m-311 -30 l0 -35 -50 0 c-53 0 -56 3
-40 44 8 22 16 26 50 26 39 0 40 -1 40 -35z m233 16 c3 -13 -3 -22 -20 -30
-47 -21 -63 -10 -47 33 9 23 60 21 67 -3z m1245 -6 c27 -59 4 -91 -61 -86 -50
3 -77 25 -77 61 0 33 28 48 86 49 34 1 43 -3 52 -24z m-176 -17 c-20 -20 -14
-48 17 -79 26 -26 37 -29 89 -29 75 0 112 25 112 75 0 25 5 35 21 40 29 10 31
3 14 -38 -8 -20 -15 -57 -15 -82 0 -44 -17 -174 -27 -205 -2 -9 -16 5 -35 39
-45 77 -138 164 -239 221 -47 28 -91 50 -97 50 -6 0 -14 5 -17 10 -4 6 29 10
91 10 76 0 95 -3 86 -12z m-1115 -650 c-3 -7 -5 -2 -5 12 0 14 2 19 5 13 2 -7
2 -19 0 -25z m1237 -25 c-14 -32 -45 -80 -70 -108 l-45 -50 56 83 c30 45 55
88 55 95 0 11 19 37 26 37 1 0 -9 -26 -22 -57z m-1155 -147 c21 -23 28 -34 16
-28 -29 15 -62 53 -69 82 -6 23 -6 23 5 5 6 -11 28 -37 48 -59z m206 -106 c33
-17 51 -28 40 -24 -11 3 -45 15 -75 24 -47 15 -130 56 -130 64 0 7 112 -37
165 -64z m805 67 c0 -2 -29 -27 -65 -55 -82 -66 -85 -61 -4 7 56 47 69 56 69
48z m-603 -163 c61 -28 78 -44 48 -44 -27 0 -80 26 -131 65 -65 49 -66 51 -19
28 22 -10 68 -32 102 -49z m1703 -574 c0 -5 -2 -10 -4 -10 -3 0 -8 5 -11 10
-3 6 -1 10 4 10 6 0 11 -4 11 -10z"/>
<path d="M2432 3204 c-50 -18 -136 -71 -187 -115 -25 -22 -35 -39 -35 -60 0
-71 50 -132 134 -164 37 -14 62 -16 141 -10 52 4 95 10 95 14 0 4 22 15 50 25
64 23 125 68 145 105 24 48 20 121 -10 161 -14 19 -36 40 -48 47 -32 18 -231
16 -285 -3z m294 -50 c28 -29 34 -43 34 -79 0 -79 -75 -138 -224 -177 -107
-28 -165 -22 -232 24 -35 24 -49 45 -58 90 -7 33 19 61 108 115 81 50 126 62
240 62 l99 1 33 -36z"/>
<path d="M2497 3053 c-14 -13 -6 -23 18 -23 16 0 25 6 25 15 0 15 -31 21 -43
8z"/>
<path d="M3014 2331 c-37 -10 -108 -61 -134 -96 -14 -19 -31 -33 -37 -30 -20
7 -45 -52 -38 -86 5 -23 18 -35 51 -52 l45 -21 28 29 c15 17 26 35 24 42 -2 6
27 36 66 67 38 31 72 60 75 65 10 15 -22 78 -41 83 -10 2 -28 2 -39 -1z m39
-53 c4 -12 5 -23 4 -23 -16 -8 -107 -85 -123 -104 -17 -20 -26 -23 -50 -16
-16 4 -23 10 -16 12 6 3 12 11 12 20 0 26 41 74 88 104 55 35 78 37 85 7z
m-206 -120 c-3 -8 -6 -5 -6 6 -1 11 2 17 5 13 3 -3 4 -12 1 -19z m43 -61 c13
-5 13 -6 -1 -6 -8 -1 -24 6 -35 15 -19 15 -19 15 1 6 11 -5 27 -12 35 -15z"/>
<path d="M3100 2316 c0 -7 23 -48 52 -92 29 -43 53 -88 55 -99 1 -11 5 -33 8
-48 4 -23 -2 -34 -27 -58 -60 -54 -107 -69 -222 -69 -98 0 -106 2 -135 26 -34
28 -58 25 -41 -7 18 -32 66 -50 137 -50 83 -1 67 -13 -44 -34 -114 -22 -194
-20 -227 6 -21 17 -26 29 -26 65 0 32 -4 44 -15 44 -44 0 -17 -104 37 -143 89
-65 476 40 574 155 38 46 27 109 -36 208 -26 41 -49 81 -52 89 -5 18 -38 24
-38 7z"/>
<path d="M2663 2198 c-19 -24 -22 -47 -8 -58 10 -8 15 -8 20 0 4 6 4 14 1 17
-3 3 2 11 11 18 9 7 13 17 9 23 -9 15 -21 15 -33 0z"/>
<path d="M1991 2091 c-33 -30 -42 -71 -16 -71 8 0 15 6 15 14 0 7 7 19 15 26
13 11 15 8 15 -13 0 -14 -5 -29 -10 -32 -12 -8 -568 -7 -580 0 -11 7 -47 -40
-62 -81 -6 -19 -18 -34 -25 -34 -19 0 -16 -28 5 -34 9 -2 139 -6 287 -8 l270
-3 -3 35 c-4 46 35 86 78 82 47 -5 72 28 68 90 -2 28 -8 53 -14 55 -6 2 -25
-10 -43 -26z m-501 -131 c0 -24 8 -25 32 -3 13 11 36 16 81 16 88 -1 87 -1 87
-23 0 -26 14 -26 31 1 12 16 26 20 82 23 37 1 71 0 76 -3 4 -3 0 -24 -9 -47
l-18 -40 -63 2 c-35 2 -138 5 -228 8 -90 3 -165 7 -166 8 -2 2 4 20 12 41 13
33 19 37 49 37 27 0 34 -4 34 -20z"/>
<path d="M2550 2112 c-67 -8 -62 -30 10 -37 24 -2 57 -10 73 -16 26 -11 31
-10 44 7 26 35 13 49 -47 49 -30 0 -66 -1 -80 -3z"/>
<path d="M2090 2001 c0 -6 5 -13 10 -16 6 -3 10 -27 10 -53 l0 -47 -50 3 c-54
4 -58 8 -35 38 19 25 19 44 0 44 -14 0 -50 -58 -57 -94 -3 -16 6 -18 74 -20
43 -1 82 0 87 4 10 6 16 65 13 123 -2 22 -7 27 -27 27 -14 0 -25 -4 -25 -9z"/>
<path d="M1710 4091 c0 -33 55 -114 107 -158 98 -82 213 -195 260 -256 31 -40
49 -55 56 -48 17 17 -53 108 -182 234 -66 66 -124 116 -129 113 -12 -7 -35 19
-64 73 -22 43 -48 65 -48 42z"/>
<path d="M3528 4050 c-105 -35 -207 -85 -215 -106 -10 -26 17 -34 111 -34 102
0 103 -5 11 -61 -34 -20 -55 -40 -55 -51 0 -10 2 -18 4 -18 3 0 38 22 80 50
75 49 106 84 89 101 -4 4 -51 9 -103 11 l-95 3 85 37 c47 20 114 45 149 55 65
19 93 43 49 42 -12 0 -62 -13 -110 -29z"/>
<path d="M2535 3930 c-6 -9 71 -50 98 -50 7 -1 23 -7 37 -15 22 -13 23 -14 5
-15 -29 -1 -55 -24 -55 -48 0 -24 44 -62 73 -62 19 0 17 4 -12 34 -36 37 -37
36 36 51 39 8 59 28 41 43 -10 7 -125 47 -205 70 -6 2 -14 -2 -18 -8z"/>
<path d="M2921 3822 c-18 -35 -32 -194 -18 -209 14 -13 22 10 29 85 4 42 10
92 14 110 7 35 -9 44 -25 14z"/>
<path d="M2963 3794 c-8 -22 26 -140 48 -167 18 -22 18 -22 19 -1 0 11 -6 40
-14 65 -8 24 -17 61 -21 82 -6 38 -21 49 -32 21z"/>
<path d="M3650 3740 c-12 -7 -12 -12 -3 -21 9 -9 16 -9 28 1 29 24 9 42 -25
20z"/>
<path d="M7003 3567 c-53 -7 -73 -14 -73 -25 0 -12 13 -13 78 -7 42 4 84 8 93
10 11 2 19 -9 27 -39 27 -102 288 -663 372 -801 17 -27 37 -66 45 -86 9 -19
29 -60 46 -90 16 -30 44 -83 60 -119 46 -97 79 -171 96 -210 9 -19 31 -69 50
-110 50 -107 96 -262 85 -288 -5 -13 -58 -14 -404 -9 -398 6 -493 2 -838 -34
-121 -12 -506 -7 -840 11 -223 12 -210 12 -210 -4 0 -13 26 -16 250 -31 288
-19 686 -22 825 -6 282 32 475 43 625 35 80 -4 243 -6 362 -5 l217 2 -5 -68
c-4 -37 -10 -85 -14 -105 -7 -33 -5 -38 10 -38 14 0 20 11 26 53 11 82 12 90
13 125 1 27 5 32 25 32 34 0 42 17 18 38 -13 11 -32 59 -52 132 -17 63 -42
133 -55 155 -33 57 -97 224 -90 236 4 5 0 12 -9 15 -8 3 -54 83 -101 177 -48
95 -104 201 -125 237 -21 36 -61 115 -90 175 -29 61 -77 162 -107 225 -74 152
-115 250 -143 335 -34 106 -26 102 -167 82z"/>
<path d="M5755 3556 c-5 -2 -23 -7 -39 -11 -22 -5 -27 -10 -23 -26 4 -16 -6
-28 -49 -56 -67 -44 -143 -142 -146 -186 -1 -18 -3 -61 -4 -97 -4 -91 -5 -99
-13 -65 -9 42 -26 28 -25 -21 0 -70 53 -209 110 -293 37 -55 122 -138 169
-165 49 -29 102 -45 91 -28 -4 7 28 -6 71 -27 86 -43 228 -91 267 -91 27 0 76
-19 76 -30 0 -15 81 -49 165 -70 50 -12 155 -32 235 -44 l145 -22 -76 -7 c-58
-6 -82 -4 -104 7 -15 8 -51 18 -79 21 -70 10 -239 51 -266 65 -28 15 -38 5
-22 -21 12 -19 11 -20 -25 -14 -202 33 -582 241 -675 369 -82 112 -138 271
-139 390 0 45 4 95 9 111 17 57 54 130 79 156 28 30 17 47 -18 29 -26 -15 -83
-136 -99 -213 -21 -102 9 -247 80 -387 51 -100 74 -129 147 -189 91 -75 183
-132 323 -199 117 -57 177 -76 310 -101 81 -16 140 -28 190 -42 65 -17 355
-17 403 -1 33 12 56 12 160 -2 193 -26 185 -24 199 -54 16 -33 48 -35 64 -4 7
13 25 32 40 41 39 24 106 100 99 111 -9 14 -49 12 -63 -2 -13 -13 -105 -13
-162 0 l-35 9 32 7 c17 4 56 30 87 58 77 70 100 131 93 253 -6 123 -31 183
-109 267 -35 37 -76 88 -92 113 -34 55 -175 207 -228 245 l-37 27 39 16 c34
13 40 20 40 45 0 55 -27 74 -112 80 -58 3 -84 0 -109 -12 -19 -9 -36 -12 -43
-7 -17 13 -77 30 -126 36 -177 19 -777 42 -805 31z m522 -41 c7 -2 67 -7 135
-10 68 -3 143 -10 168 -15 64 -13 138 -47 144 -68 6 -18 55 -52 76 -52 34 0
204 -153 282 -255 74 -96 129 -214 135 -288 5 -56 2 -70 -25 -124 -55 -108
-181 -195 -325 -222 -84 -16 -112 -32 -71 -40 48 -9 160 22 235 65 99 57 141
96 185 169 32 54 35 57 29 25 -4 -19 -16 -50 -28 -69 -23 -39 -123 -115 -185
-142 -41 -18 -49 -39 -15 -39 52 0 215 130 244 195 22 48 25 125 5 125 -9 0
-14 15 -14 49 -1 27 -6 61 -12 76 -15 40 -4 42 17 3 35 -65 42 -89 49 -163 l7
-75 -58 -66 c-32 -36 -82 -79 -112 -96 -53 -30 -67 -48 -37 -48 31 0 84 32
134 82 66 64 65 43 -1 -27 -31 -33 -68 -61 -95 -71 -45 -17 -54 -28 -31 -38 6
-3 -24 -5 -68 -4 -123 1 -332 36 -460 78 -33 10 -95 28 -137 38 -55 14 -103
36 -166 76 -49 31 -97 56 -107 56 -10 0 -40 20 -66 45 -26 25 -57 45 -68 45
-20 0 -71 -56 -71 -78 0 -14 114 -102 132 -102 8 0 23 -7 34 -15 16 -12 11
-12 -36 1 -78 23 -158 57 -290 125 -165 85 -211 133 -255 264 -24 71 -27 97
-29 220 l-1 141 36 49 c41 57 105 109 199 159 l65 36 220 -6 c121 -3 225 -7
232 -9z m632 -60 c34 -33 -18 -59 -97 -48 -39 5 -72 31 -72 55 0 20 147 14
169 -7z m-780 -841 c1 -6 -6 -17 -14 -24 -12 -10 -23 -5 -60 25 -25 21 -45 40
-45 43 0 3 7 14 16 24 16 17 19 16 60 -20 23 -20 43 -42 43 -48z m148 -66 c49
-33 96 -54 141 -65 37 -9 108 -29 157 -44 144 -44 298 -70 470 -79 88 -5 171
-12 183 -16 l24 -7 -28 -22 c-20 -16 -35 -21 -49 -15 -11 4 -49 10 -85 14 -78
8 -247 32 -316 45 -27 5 -74 12 -104 16 -208 24 -420 88 -420 127 0 10 -7 18
-17 18 -21 0 -83 41 -83 56 0 17 22 33 38 26 9 -3 49 -28 89 -54z"/>
<path d="M6159 3229 c-26 -4 -56 -12 -67 -18 -29 -15 -82 -100 -82 -130 1 -82
96 -185 205 -222 58 -19 91 -23 195 -24 133 0 171 10 212 59 21 26 23 85 3
131 -51 123 -296 230 -466 204z m247 -68 c180 -70 262 -220 152 -277 -52 -28
-242 -24 -328 5 -78 27 -113 51 -151 104 -53 72 -33 158 45 193 53 25 186 13
282 -25z"/>
<path d="M6317 3064 c-9 -10 2 -24 19 -24 8 0 14 7 14 15 0 15 -21 21 -33 9z"/>
<path d="M5085 3540 c-159 -7 -153 -24 9 -28 l124 -3 11 -47 c6 -26 18 -105
27 -177 8 -71 18 -141 21 -154 5 -22 4 -23 -26 -16 -25 5 -31 3 -31 -10 0 -21
27 -30 44 -16 12 10 16 3 25 -41 26 -136 40 -217 46 -268 20 -169 78 -469 109
-572 l15 -48 -27 -1 c-143 -7 -1237 3 -1342 11 -185 16 -601 10 -623 -9 -21
-17 -12 -34 14 -26 28 9 448 7 899 -4 343 -8 521 -10 1035 -11 l101 0 -7 -57
c-9 -90 -26 -115 -49 -73 -12 23 -40 27 -40 7 0 -18 36 -51 48 -43 5 3 7 -23
6 -57 -2 -34 -3 -78 -3 -97 l-1 -35 -172 3 c-184 4 -258 -6 -258 -35 0 -12 5
-13 23 -8 29 11 349 15 384 6 20 -6 27 -13 25 -27 -5 -34 24 -129 39 -129 8 0
13 8 11 20 -12 87 -13 148 -2 196 7 30 16 117 19 194 6 116 4 143 -8 155 -8 8
-19 15 -25 15 -22 0 -78 233 -121 500 -8 55 -27 170 -41 255 -14 85 -32 205
-40 265 -28 200 -54 349 -66 362 -6 7 -16 12 -22 11 -6 -1 -65 -4 -131 -8z"/>
<path d="M5555 3528 c-22 -5 -95 -8 -163 -6 -103 3 -122 2 -120 -11 4 -19 22
-21 153 -21 113 0 216 17 216 35 0 14 -38 15 -86 3z"/>
<path d="M4127 3473 c-11 -10 -8 -41 4 -48 13 -9 16 -6 24 28 5 20 3 27 -7 27
-8 0 -18 -3 -21 -7z"/>
<path d="M5042 3460 c-27 -25 -28 -42 -3 -64 13 -12 32 -16 58 -14 31 2 39 7
41 27 9 62 -50 93 -96 51z m62 -19 c3 -5 -1 -14 -9 -21 -13 -10 -15 -9 -15 9
0 21 14 28 24 12z"/>
<path d="M4083 3403 c-37 -7 -28 -33 11 -33 32 0 35 -3 38 -32 2 -21 8 -33 18
-33 10 0 14 8 12 23 -2 13 4 32 14 43 9 10 14 22 11 26 -8 8 -75 12 -104 6z"/>
<path d="M5039 3339 c-28 -28 -10 -82 31 -91 8 -2 21 -9 30 -17 13 -13 15 -8
18 43 3 62 -8 86 -39 86 -11 0 -28 -9 -40 -21z m49 -43 c-2 -10 -7 -13 -17 -7
-8 6 -11 16 -7 27 8 21 30 4 24 -20z"/>
<path d="M3916 3288 c-18 -26 -21 -54 -6 -63 8 -5 7 -11 -1 -21 -17 -21 0 -34
34 -27 37 7 51 42 37 94 -12 45 -40 52 -64 17z m34 -40 c0 -16 -3 -19 -11 -11
-6 6 -8 16 -5 22 11 17 16 13 16 -11z"/>
<path d="M3670 3275 c-15 -18 -6 -78 15 -95 12 -10 16 -8 23 10 7 20 10 21 15
7 13 -33 27 -16 27 32 0 35 -4 51 -16 55 -26 10 -51 7 -64 -9z m50 -25 c0 -5
-4 -10 -10 -10 -5 0 -10 5 -10 10 0 6 5 10 10 10 6 0 10 -4 10 -10z"/>
<path d="M4100 3251 c-8 -16 -6 -21 10 -26 23 -7 88 4 96 16 2 5 -7 11 -21 14
-14 3 -36 7 -50 10 -17 4 -27 0 -35 -14z"/>
<path d="M5013 3244 c-11 -28 31 -57 90 -62 36 -3 57 0 62 8 9 15 -14 32 -34
25 -26 -10 -83 7 -88 26 -6 23 -21 25 -30 3z"/>
<path d="M4346 3215 c-7 -19 3 -25 42 -25 42 0 39 22 -6 31 -21 4 -33 2 -36
-6z"/>
<path d="M4080 3186 c0 -18 79 -30 114 -16 43 16 20 30 -50 30 -48 0 -64 -3
-64 -14z"/>
<path d="M4338 3162 c-16 -2 -28 -10 -28 -17 0 -11 15 -14 63 -12 47 1 62 5
62 17 0 15 -38 20 -97 12z"/>
<path d="M3652 3148 c-7 -7 -12 -22 -12 -35 0 -16 -4 -21 -15 -17 -10 4 -18
-3 -26 -22 -10 -26 -8 -31 22 -56 27 -23 30 -30 20 -42 -7 -8 -10 -20 -6 -26
4 -7 -1 -26 -10 -44 -16 -29 -16 -36 -4 -62 16 -33 62 -44 92 -21 18 12 21 30
26 130 1 20 6 27 21 27 25 0 57 47 42 62 -7 7 -14 4 -24 -11 -26 -42 -149 -15
-147 34 0 19 1 19 11 -3 17 -35 33 -20 30 26 -3 34 0 42 13 42 9 0 14 -4 11
-9 -3 -5 1 -14 9 -21 8 -7 15 -19 15 -26 0 -8 7 -14 15 -14 20 0 20 49 -1 78
-17 24 -62 30 -82 10z m58 -208 c0 -5 -9 -10 -20 -10 -11 0 -20 5 -20 10 0 6
9 10 20 10 11 0 20 -4 20 -10z m-12 -62 c-4 -30 -48 -39 -48 -10 0 10 3 22 7
25 3 4 15 7 25 7 14 0 19 -6 16 -22z"/>
<path d="M5022 3108 c2 -18 8 -22 28 -20 31 5 34 7 27 27 -4 8 -18 15 -32 15
-22 0 -26 -4 -23 -22z"/>
<path d="M4064 3065 c-21 -46 -9 -58 22 -22 20 23 30 27 57 23 17 -3 40 -15
49 -26 18 -22 38 -19 38 6 0 23 -61 54 -107 54 -38 0 -44 -3 -59 -35z"/>
<path d="M4529 3058 c-7 -13 -16 -26 -22 -29 -17 -11 1 -40 33 -52 26 -10 52
-39 32 -36 -19 3 -22 -3 -12 -21 6 -11 16 -20 23 -20 8 0 13 -22 14 -67 2 -49
7 -71 19 -80 15 -11 15 -14 0 -35 -22 -31 -20 -42 9 -74 14 -15 25 -34 25 -43
0 -10 5 -22 12 -29 6 -6 9 -15 5 -19 -4 -4 -13 -1 -19 5 -17 17 -38 15 -38 -3
0 -8 14 -21 30 -30 33 -17 38 -30 15 -39 -17 -6 -21 -51 -5 -61 6 -3 -1 -23
-16 -46 -23 -37 -24 -42 -10 -58 9 -10 13 -21 9 -24 -3 -4 2 -16 12 -27 29
-32 115 -23 115 12 0 5 -16 6 -36 2 -26 -5 -35 -3 -30 4 4 6 13 9 20 6 27 -10
27 53 0 146 l-7 25 31 -28 c16 -16 38 -27 47 -25 14 2 12 9 -14 35 -17 18 -31
37 -31 43 0 5 -8 10 -17 10 -25 0 -3 18 27 22 l25 3 0 133 c0 129 -1 133 -22
138 -18 5 -23 13 -23 39 0 46 -9 65 -31 65 -12 0 -16 5 -13 15 4 8 2 15 -4 15
-5 0 -9 27 -8 63 0 34 -3 68 -7 75 -5 7 -31 12 -67 12 -51 0 -61 -3 -71 -22z
m111 -23 c0 -8 -9 -15 -20 -15 -11 0 -20 4 -20 9 0 5 -10 12 -22 14 -13 2 -4
5 20 6 31 1 42 -3 42 -14z m-10 -59 c0 -8 -4 -18 -10 -21 -5 -3 -10 3 -10 14
0 12 5 21 10 21 6 0 10 -6 10 -14z m70 -151 c0 -25 -4 -45 -10 -45 -5 0 -10
14 -10 31 0 39 -23 34 -30 -7 l-6 -29 -7 27 c-4 14 -10 33 -13 41 -6 16 11 24
54 26 20 1 22 -4 22 -44z m39 -147 c-1 -46 -4 -69 -6 -53 -3 17 -9 35 -15 42
-15 19 -19 76 -5 85 24 15 27 7 26 -74z m-66 32 c3 -11 1 -23 -4 -26 -5 -3 -9
6 -9 20 0 31 6 34 13 6z m36 -135 c0 -5 -6 -1 -14 9 -8 10 -11 24 -8 29 6 10
21 -16 22 -38z m-32 -137 c-3 -8 -6 -5 -6 6 -1 11 2 17 5 13 3 -3 4 -12 1 -19z
m13 -53 c-7 -9 -15 -13 -17 -11 -7 7 7 26 19 26 6 0 6 -6 -2 -15z"/>
<path d="M5072 3058 c-7 -7 -12 -20 -12 -29 0 -11 -9 -19 -22 -21 -19 -2 -24
-10 -26 -40 -3 -32 0 -38 16 -38 27 0 52 32 45 58 -5 20 -2 22 30 22 19 0 40
6 46 14 26 31 -48 63 -77 34z"/>
<path d="M3897 3054 c-12 -13 -8 -24 11 -24 14 0 17 -9 17 -52 0 -34 5 -53 13
-56 11 -3 13 8 10 51 -3 56 -3 56 27 59 17 2 30 8 30 13 0 12 -97 19 -108 9z"/>
<path d="M4305 3052 c-17 -17 -2 -32 33 -32 34 0 37 -2 38 -29 1 -21 -4 -31
-18 -34 -16 -5 -18 -9 -8 -26 6 -12 17 -21 25 -21 11 0 12 -6 3 -32 -6 -18
-14 -37 -18 -43 -8 -10 -13 -40 -11 -63 0 -7 13 -17 27 -22 26 -10 25 -30 -2
-30 -25 0 -17 -56 11 -78 28 -22 33 -42 10 -42 -8 0 -15 -6 -15 -13 0 -22 32
-44 73 -51 30 -6 37 -4 37 9 0 9 -12 18 -30 22 -37 7 -47 19 -23 27 10 3 26
18 35 33 10 16 23 36 30 45 17 23 2 35 -19 16 -35 -29 -38 -27 -37 29 0 41 5
58 17 65 22 12 22 28 -1 28 -13 0 -23 14 -34 49 l-15 49 33 16 c19 8 34 22 34
31 0 18 -21 20 -38 3 -16 -16 -23 -6 -26 31 -1 20 3 31 11 31 17 0 17 30 1 31
-40 5 -119 5 -123 1z m90 -262 c3 -5 1 -10 -4 -10 -6 0 -11 5 -11 10 0 6 2 10
4 10 3 0 8 -4 11 -10z m9 -105 c3 -8 1 -15 -4 -15 -6 0 -10 7 -10 15 0 8 2 15
4 15 2 0 6 -7 10 -15z"/>
<path d="M4111 3002 c-14 -27 5 -52 39 -52 35 0 35 1 15 40 -17 34 -40 39 -54
12z"/>
<path d="M5113 2988 c-13 -17 -23 -58 -15 -59 4 -1 26 -3 49 -3 42 -2 62 -11
50 -22 -3 -3 -14 -1 -23 4 -28 16 -54 -3 -54 -38 0 -25 4 -30 24 -30 14 0 32
7 41 17 13 12 19 13 24 4 5 -7 23 -11 42 -9 29 2 34 7 37 31 2 17 -2 29 -12
33 -14 5 -14 8 1 30 12 19 13 27 4 38 -19 23 -71 8 -71 -20 0 -20 -9 -17 -36
11 -25 27 -46 32 -61 13z"/>
<path d="M4130 2891 c-14 -27 -13 -54 4 -76 17 -23 1 -71 -26 -78 -21 -6 -15
-34 10 -54 14 -11 14 -15 -1 -31 -10 -11 -17 -35 -17 -59 0 -32 5 -42 24 -51
19 -8 30 -7 55 9 29 18 31 22 25 57 -4 20 -11 42 -15 48 -6 8 1 16 21 24 34
14 40 40 10 40 -12 0 -20 7 -20 18 0 10 -7 27 -15 39 -14 20 -14 22 7 25 20 3
23 8 21 42 -2 21 -8 45 -14 52 -17 20 -57 17 -69 -5z m50 -43 c0 -17 -3 -18
-14 -8 -8 6 -12 18 -9 26 7 19 23 7 23 -18z m-13 -130 c-3 -7 -5 -2 -5 12 0
14 2 19 5 13 2 -7 2 -19 0 -25z m1 -102 c2 -9 1 -24 -3 -33 -5 -14 -8 -13 -21
6 -17 24 -12 55 9 49 6 -3 14 -12 15 -22z"/>
<path d="M4265 2837 c-18 -43 -7 -328 13 -335 9 -3 12 34 12 160 0 107 4 168
11 175 12 12 4 33 -12 33 -6 0 -16 -15 -24 -33z"/>
<path d="M3909 2813 c-10 -12 -14 -55 -16 -159 -1 -152 2 -184 21 -184 9 0 13
41 13 156 0 94 5 160 11 166 11 11 5 38 -8 38 -4 0 -14 -7 -21 -17z"/>
<path d="M3968 2808 c-8 -15 -12 -76 -12 -178 -1 -131 1 -155 14 -155 13 0 15
24 17 154 1 95 5 157 12 164 6 6 11 17 11 24 0 21 -28 15 -42 -9z"/>
<path d="M5146 2765 c-6 -17 19 -45 42 -45 15 -1 15 -2 -1 -14 -22 -17 -20
-71 3 -71 10 0 14 8 12 23 -3 20 0 22 22 16 20 -5 26 -2 26 10 0 9 -10 20 -22
25 -14 5 -18 10 -10 15 17 10 5 26 -19 26 -11 0 -22 7 -25 15 -8 19 -20 19
-28 0z"/>
<path d="M5257 2663 c-4 -3 -7 -15 -7 -26 0 -13 5 -17 15 -13 9 3 15 0 15 -8
0 -8 -9 -12 -22 -9 -13 2 -34 -6 -48 -17 l-25 -20 22 -6 c21 -6 21 -8 9 -33
-20 -37 -9 -80 22 -92 43 -16 95 6 62 26 -5 3 -10 18 -10 33 0 15 -7 37 -15
49 -13 18 -13 22 0 33 12 10 15 9 15 -5 0 -9 6 -15 13 -12 15 5 12 74 -4 93
-12 15 -31 18 -42 7z m3 -158 c0 -8 -4 -15 -10 -15 -5 0 -10 7 -10 15 0 8 5
15 10 15 6 0 10 -7 10 -15z"/>
<path d="M3576 2592 c-17 -20 -33 -94 -38 -182 l-3 -55 111 -3 c140 -3 139 -4
125 114 -6 48 -18 98 -27 112 -15 23 -20 24 -71 18 -33 -4 -60 -2 -68 4 -8 7
-17 5 -29 -8z m155 -62 c4 -19 9 -59 11 -90 l3 -55 -87 -3 -88 -3 1 38 c0 21
4 61 7 88 l7 50 50 6 c82 10 88 8 96 -31z"/>
<path d="M4368 2442 c-26 -15 -28 -22 -28 -78 0 -41 5 -66 14 -73 10 -8 16 -9
21 -1 4 7 12 7 25 0 27 -14 76 -12 89 4 7 8 9 25 5 40 -3 14 -7 43 -8 64 -1
21 -6 43 -10 50 -11 18 -77 14 -108 -6z m58 -66 c-11 -30 -22 -50 -24 -46 -2
5 -10 6 -18 3 -11 -4 -14 4 -14 35 0 44 16 61 56 62 l21 0 -21 -54z"/>
<path d="M4285 2415 c-3 -8 -7 -21 -9 -28 -2 -8 0 -20 5 -28 8 -12 10 -12 19
1 13 20 13 70 0 70 -6 0 -13 -7 -15 -15z"/>
<path d="M4113 2410 c-18 -8 -23 -17 -23 -49 0 -51 26 -83 58 -71 15 6 22 18
23 37 1 25 2 24 8 -7 4 -21 12 -35 21 -35 11 0 14 10 11 44 -6 88 -30 108 -98
81z m27 -60 c0 -16 -4 -30 -10 -30 -5 0 -10 14 -10 30 0 17 5 30 10 30 6 0 10
-13 10 -30z"/>
<path d="M4930 2400 c-15 -15 -21 -31 -19 -53 2 -18 0 -38 -4 -44 -5 -7 -3
-22 3 -33 8 -15 21 -20 55 -20 24 0 56 5 70 10 31 12 28 36 -3 33 -19 -2 -21
3 -24 60 -3 59 -4 62 -30 65 -17 2 -34 -4 -48 -18z m53 -119 c-13 -20 -29 71
-17 96 6 13 10 3 14 -37 3 -30 4 -57 3 -59z"/>
<path d="M5126 2401 c-10 -15 3 -76 19 -87 8 -6 15 -18 15 -27 0 -21 39 -42
52 -29 6 6 3 15 -7 26 -9 9 -14 20 -10 25 3 5 -4 16 -16 24 -11 8 -20 21 -19
28 5 31 -1 49 -14 49 -8 0 -17 -4 -20 -9z"/>
<path d="M7526 2332 c-8 -14 -36 -142 -36 -168 0 -15 6 -24 15 -24 8 0 15 3
15 8 0 4 14 8 32 9 45 3 57 20 62 88 3 45 0 64 -11 78 -16 17 -68 24 -77 9z
m54 -81 c0 -57 -1 -59 -29 -63 l-28 -4 13 55 c7 31 13 59 14 64 0 4 7 7 15 7
12 0 15 -13 15 -59z"/>
<path d="M7337 2314 c-14 -15 6 -24 54 -24 42 0 49 -3 49 -20 0 -21 -20 -26
-48 -11 -37 19 -72 22 -72 6 0 -8 12 -18 28 -21 15 -4 39 -14 55 -23 41 -23
62 -6 62 50 l0 44 -60 3 c-34 2 -64 0 -68 -4z"/>
<path d="M5352 2278 c6 -18 28 -21 28 -4 0 9 -7 16 -16 16 -9 0 -14 -5 -12
-12z"/>
<path d="M7097 2163 c-14 -14 -6 -45 18 -68 35 -35 55 -33 50 6 -6 47 -46 84
-68 62z"/>
<path d="M3726 2114 c-9 -9 -16 -32 -16 -55 0 -35 -4 -41 -39 -58 -21 -11 -54
-32 -72 -47 -31 -25 -30 -24 7 17 68 73 84 92 84 100 0 14 -27 16 -50 4 -12
-7 -31 -10 -41 -8 -17 5 -109 -70 -109 -89 0 -19 31 -19 60 2 16 12 30 19 30
17 0 -3 -18 -27 -40 -53 -22 -27 -40 -54 -40 -61 0 -28 36 -24 72 9 40 38 47
36 11 -3 -64 -67 -52 -102 21 -64 40 21 40 20 10 -20 -34 -44 -22 -65 25 -46
33 14 50 41 25 41 -10 0 -5 9 14 25 17 14 33 25 37 25 4 0 4 -27 0 -60 -5 -42
-4 -60 4 -60 26 0 33 56 27 207 -5 100 -3 154 4 158 13 8 13 35 1 35 -5 0 -17
-7 -25 -16z m-13 -192 c-3 -12 -12 -22 -20 -22 -7 0 -33 -9 -56 -21 l-42 -21
55 56 c39 40 56 52 62 43 4 -8 4 -23 1 -35z"/>
<path d="M7620 2118 c0 -2 6 -20 13 -40 18 -50 7 -132 -20 -159 -11 -11 -38
-25 -59 -30 -21 -5 -48 -12 -59 -15 -63 -16 -154 -15 -215 1 -36 9 -72 18 -81
20 -44 9 -93 38 -132 79 -42 45 -77 59 -77 33 0 -7 28 -36 63 -65 52 -44 79
-58 161 -84 91 -28 108 -30 190 -25 101 6 214 37 240 65 9 11 22 45 28 76 10
46 10 64 -2 99 -9 24 -22 43 -32 45 -10 2 -18 2 -18 0z"/>
<path d="M7293 2065 c-30 -21 -32 -80 -4 -95 27 -14 114 -13 129 2 52 52 -64
137 -125 93z m87 -35 c32 -32 25 -41 -27 -38 -37 2 -49 7 -51 22 -8 37 46 48
78 16z"/>
<path d="M6117 2054 c-1 -1 -44 -4 -96 -8 -52 -4 -97 -8 -99 -11 -9 -9 11 -25
31 -25 12 0 29 -5 37 -10 12 -8 11 -10 -7 -10 -14 0 -23 -6 -23 -15 0 -18 4
-18 95 -20 132 -3 135 -3 135 -25 0 -16 -8 -19 -62 -22 -35 -2 -98 -2 -140 0
l-78 4 0 53 c0 50 -12 76 -28 60 -4 -3 -7 -28 -8 -55 -1 -26 -5 -54 -9 -60 -9
-15 35 -52 50 -42 5 4 64 8 130 9 66 1 188 4 270 7 83 2 203 5 268 5 94 1 119
4 123 16 3 8 -9 45 -28 82 l-33 68 -263 0 c-145 0 -264 -1 -265 -1z m333 -38
c0 -8 -7 -17 -16 -20 -18 -7 -114 -8 -114 -2 0 2 -3 11 -6 20 -5 14 4 16 65
16 54 0 71 -3 71 -14z m104 5 c7 -11 -49 -25 -64 -16 -5 3 -10 10 -10 16 0 12
67 12 74 0z m66 -1 c0 -5 -12 -10 -27 -10 -22 0 -25 2 -13 10 20 13 40 13 40
0z m-473 -17 c3 -7 -17 -12 -61 -15 -55 -3 -63 -1 -56 12 10 19 111 21 117 3z
m133 2 c11 -13 6 -15 -38 -15 -48 0 -69 9 -55 24 12 12 81 6 93 -9z m378 -50
c7 -14 12 -28 12 -30 0 -3 -72 -5 -161 -5 -147 0 -160 1 -157 18 3 14 22 19
113 28 178 18 180 18 193 -11z m-335 -15 c5 -18 0 -20 -43 -20 -50 0 -74 15
-49 31 8 5 30 9 50 9 28 0 38 -5 42 -20z"/>
<path d="M3836 2017 c-14 -10 -15 -18 -7 -40 13 -33 25 -34 45 -5 12 17 18 20
28 10 22 -22 48 -14 48 14 0 23 -3 25 -34 23 -19 -2 -38 0 -42 4 -10 10 -18 9
-38 -6z"/>
<path d="M4795 2020 c-8 -13 4 -32 16 -25 12 8 12 35 0 35 -6 0 -13 -4 -16
-10z"/>
<path d="M4937 2023 c-4 -3 -7 -13 -7 -21 0 -10 7 -12 26 -8 23 6 25 5 18 -11
-4 -10 -8 -34 -8 -53 -1 -31 2 -35 27 -38 31 -4 33 1 40 81 l6 57 -48 0 c-26
0 -51 -3 -54 -7z"/>
<path d="M5236 2021 c-8 -13 11 -61 24 -61 15 0 8 62 -7 67 -6 2 -14 0 -17 -6z"/>
<path d="M5120 2005 c-21 -26 3 -41 29 -19 11 10 21 22 21 26 0 14 -37 8 -50
-7z"/>
<path d="M5325 1981 c-8 -15 3 -31 21 -31 9 0 14 7 12 17 -4 20 -24 28 -33 14z"/>
<path d="M4000 1968 c0 -7 5 -20 10 -28 12 -19 35 2 27 24 -7 19 -37 21 -37 4z"/>
<path d="M4657 1913 c-4 -3 -7 -20 -7 -37 0 -18 -11 -42 -24 -57 -20 -24 -32
-27 -117 -34 -95 -7 -119 -15 -119 -42 0 -11 5 -13 18 -8 9 5 33 10 52 12 226
25 240 32 238 117 -1 45 -5 56 -18 56 -9 0 -20 -3 -23 -7z"/>
<path d="M5010 1871 c-5 -11 -10 -29 -10 -41 0 -11 -6 -22 -12 -25 -30 -9
-192 -13 -214 -5 -31 12 -44 -8 -18 -27 14 -11 40 -13 101 -10 46 2 80 0 77
-4 -3 -5 -11 -9 -17 -9 -7 0 -39 -14 -72 -30 -33 -17 -71 -30 -86 -30 -36 0
-54 22 -40 49 14 25 -3 38 -24 21 -28 -23 -15 -77 21 -91 22 -8 24 -14 24 -79
0 -56 3 -70 15 -70 11 0 15 12 16 43 1 23 1 48 0 55 -4 24 19 40 92 68 123 47
167 81 167 130 0 18 4 35 10 39 11 6 2 35 -11 35 -4 0 -13 -9 -19 -19z"/>
<path d="M5285 1876 c-16 -12 -18 -19 -9 -32 15 -26 34 -29 34 -6 0 14 8 22
23 24 12 2 21 8 20 13 -4 16 -46 17 -68 1z"/>
<path d="M5165 1860 c-9 -15 14 -40 31 -33 10 4 11 10 3 24 -11 21 -24 24 -34
9z"/>
<path d="M5412 1837 c-6 -7 -8 -18 -4 -24 10 -15 52 2 52 22 0 18 -33 20 -48
2z"/>
<path d="M3915 1785 c-3 -8 -7 -22 -10 -31 -4 -13 -18 -15 -77 -12 -46 2 -73
-1 -75 -8 -6 -19 23 -24 170 -29 78 -3 151 -8 162 -10 11 -2 27 0 35 5 27 17
-3 28 -85 32 l-80 4 3 32 c3 27 0 32 -18 32 -11 0 -23 -7 -25 -15z"/>
</g>
</svg>
