<?xml version="1.0" standalone="no"?>
<!DOCTYPE svg PUBLIC "-//W3C//DTD SVG 20010904//EN"
 "http://www.w3.org/TR/2001/REC-SVG-20010904/DTD/svg10.dtd">
<svg version="1.0" xmlns="http://www.w3.org/2000/svg"
 width="2048.000000pt" height="1536.000000pt" viewBox="0 0 2048.000000 1536.000000"
 preserveAspectRatio="xMidYMid meet">

<g transform="translate(0.000000,1536.000000) scale(0.100000,-0.100000)"
fill="#000000" stroke="none">
<path d="M2180 13715 c-7 -8 -21 -15 -31 -15 -10 0 -21 -5 -24 -10 -4 -6 -15
-8 -24 -5 -11 3 -38 -8 -69 -30 -28 -19 -58 -35 -66 -35 -9 0 -20 -9 -26 -20
-6 -11 -16 -20 -23 -20 -24 0 -66 -25 -77 -45 -6 -12 -21 -25 -33 -30 -12 -6
-23 -21 -25 -35 -6 -39 -50 -80 -87 -80 -31 0 -58 -20 -67 -50 -3 -10 -16 -14
-45 -12 -34 3 -45 -2 -72 -28 -17 -17 -31 -36 -31 -41 0 -5 -7 -9 -15 -9 -9 0
-24 -13 -33 -30 -10 -18 -25 -30 -38 -30 -27 0 -84 -60 -84 -88 0 -18 -6 -22
-29 -22 -23 0 -40 -12 -78 -55 -26 -30 -53 -55 -59 -55 -13 0 -51 -51 -64 -85
-6 -15 -17 -25 -29 -25 -13 0 -27 -12 -36 -30 -9 -17 -31 -36 -50 -44 -19 -8
-35 -21 -35 -28 0 -7 -9 -24 -20 -38 -11 -14 -20 -32 -20 -40 0 -8 -24 -34
-54 -58 -29 -24 -62 -58 -72 -77 -13 -25 -26 -35 -48 -37 -18 -2 -35 -11 -41
-23 -5 -11 -23 -33 -38 -48 -24 -23 -27 -33 -22 -58 7 -30 6 -31 -23 -24 -26
5 -33 2 -49 -22 -10 -15 -37 -48 -60 -72 -24 -25 -43 -48 -43 -52 0 -4 -16
-24 -35 -43 -19 -20 -35 -42 -35 -49 0 -7 -9 -18 -20 -25 -11 -7 -20 -20 -20
-30 0 -10 -11 -29 -25 -42 -14 -13 -25 -29 -25 -35 0 -6 -16 -28 -35 -48 -22
-23 -35 -47 -35 -64 0 -14 -7 -35 -16 -45 -10 -10 -19 -40 -22 -67 -4 -41 0
-58 22 -97 14 -25 26 -56 26 -68 0 -35 23 -60 52 -54 17 3 29 -1 37 -14 16
-25 48 -22 67 6 8 14 21 23 28 20 14 -5 46 20 46 36 0 4 11 11 25 14 18 5 27
15 31 34 3 15 25 49 49 74 24 26 46 56 50 66 3 11 17 27 30 36 14 9 25 21 25
28 0 6 10 21 23 34 76 80 97 111 97 149 1 41 31 75 68 75 32 0 46 12 57 50 20
74 74 146 101 136 27 -11 64 58 64 121 0 22 1 22 31 5 29 -17 31 -16 49 6 10
12 23 22 28 22 13 0 90 87 108 123 10 18 22 27 39 27 25 0 55 33 55 61 0 12 6
16 19 12 14 -4 34 9 67 41 25 25 50 46 56 46 5 0 14 13 19 29 7 19 19 31 32
33 13 2 28 16 37 35 11 25 21 33 42 33 29 0 58 39 58 79 0 18 3 19 26 10 37
-14 64 12 64 61 0 46 24 70 71 70 37 0 96 31 105 55 5 11 11 12 25 5 14 -8 29
-4 67 20 27 16 56 30 64 30 9 0 21 7 28 15 19 22 71 43 105 41 29 -1 29 -2 31
-66 2 -36 -2 -81 -8 -100 -6 -19 -11 -74 -11 -122 1 -63 -3 -90 -13 -99 -17
-14 -18 -59 -2 -94 10 -22 8 -29 -17 -55 -24 -25 -27 -36 -27 -92 0 -35 3 -84
7 -109 6 -40 3 -52 -20 -87 -15 -22 -28 -55 -29 -74 -4 -49 -16 -80 -42 -111
-26 -31 -30 -57 -13 -89 7 -13 9 -47 4 -94 -6 -63 -10 -74 -28 -80 -64 -19
-107 -118 -77 -174 16 -29 31 -119 24 -144 -3 -14 -18 -27 -39 -35 -52 -18
-88 -67 -82 -108 5 -26 0 -43 -19 -71 -14 -20 -23 -43 -21 -52 3 -8 6 -21 8
-29 2 -7 -9 -21 -25 -30 -18 -10 -35 -32 -45 -58 -14 -40 -14 -44 10 -90 28
-53 27 -73 -2 -73 -23 0 -61 -18 -71 -34 -14 -20 -8 -58 14 -97 20 -36 20 -39
5 -63 -11 -16 -23 -23 -32 -20 -8 4 -27 -1 -41 -10 -21 -15 -25 -23 -22 -59 2
-34 -1 -44 -17 -52 -16 -9 -20 -21 -20 -60 0 -28 -6 -56 -14 -64 -9 -10 -12
-34 -9 -78 3 -49 1 -63 -10 -63 -7 0 -27 -14 -44 -30 -22 -22 -29 -37 -26 -55
4 -18 -1 -29 -20 -41 -21 -14 -24 -21 -19 -57 4 -30 1 -47 -10 -59 -17 -19
-19 -47 -8 -96 6 -26 5 -31 -7 -27 -8 3 -26 -4 -41 -15 -32 -25 -35 -62 -10
-116 l18 -36 -32 -26 c-17 -15 -37 -45 -43 -67 -7 -22 -21 -51 -31 -64 -11
-13 -19 -32 -19 -42 0 -10 -11 -26 -25 -35 -14 -9 -25 -23 -25 -30 0 -8 -12
-19 -26 -25 -21 -7 -31 -6 -45 7 -17 15 -22 14 -81 -14 -35 -17 -77 -43 -93
-58 -25 -23 -38 -28 -75 -27 -25 1 -58 -4 -75 -11 -19 -9 -51 -12 -85 -10 -30
3 -74 6 -98 7 -29 1 -47 8 -53 20 -6 9 -20 17 -33 17 -12 0 -37 16 -57 36 -27
28 -40 34 -60 30 -20 -4 -32 1 -48 20 -22 26 -36 30 -46 14 -3 -6 -16 -8 -29
-4 -14 3 -27 -1 -35 -10 -8 -9 -26 -16 -41 -16 -22 0 -30 -6 -39 -31 -6 -18
-11 -45 -11 -61 0 -16 -7 -43 -16 -60 -12 -24 -14 -36 -5 -55 6 -13 11 -34 11
-47 0 -28 26 -53 60 -58 20 -2 25 -9 26 -35 2 -42 39 -93 68 -93 12 0 37 -16
56 -35 27 -28 42 -35 71 -35 22 0 41 -6 46 -14 4 -8 24 -21 44 -29 29 -12 41
-12 65 -2 26 11 33 10 52 -5 17 -15 38 -17 106 -16 50 2 91 8 100 15 8 7 24
10 35 6 13 -4 30 5 58 30 44 40 87 46 124 16 31 -25 19 -38 -45 -50 -56 -10
-66 -21 -66 -77 0 -31 -8 -51 -30 -79 -19 -24 -30 -49 -29 -64 5 -66 -1 -86
-31 -103 -26 -15 -30 -23 -30 -57 0 -30 -5 -43 -20 -51 -15 -8 -20 -21 -20
-54 0 -28 -6 -48 -16 -57 -13 -11 -16 -26 -11 -79 l5 -65 -47 -30 c-40 -26
-46 -34 -47 -66 0 -25 -9 -48 -27 -69 -31 -36 -33 -59 -11 -105 15 -32 15 -35
-10 -72 -14 -21 -26 -48 -26 -60 0 -15 -6 -23 -18 -23 -31 0 -62 -29 -62 -58
0 -23 -22 -79 -52 -132 -31 -56 -36 -84 -23 -137 7 -29 5 -33 -12 -33 -26 0
-53 -31 -53 -60 0 -13 -6 -31 -13 -39 -26 -30 -58 -127 -52 -153 5 -19 1 -28
-18 -41 -19 -12 -27 -28 -32 -66 -4 -29 -15 -57 -26 -67 -10 -9 -19 -30 -19
-46 0 -16 -11 -45 -23 -66 -13 -20 -30 -55 -37 -77 -7 -22 -20 -54 -28 -71 -8
-17 -13 -43 -10 -57 4 -19 0 -27 -13 -30 -11 -3 -22 -13 -26 -24 -4 -10 -16
-25 -26 -33 -26 -21 -61 -116 -61 -167 0 -31 6 -49 24 -68 19 -21 23 -34 21
-76 -2 -52 16 -89 44 -89 7 0 24 -9 39 -21 27 -21 36 -19 73 13 17 16 25 18
41 9 12 -6 25 -11 30 -11 14 0 62 74 62 96 0 11 11 31 25 44 14 13 25 31 25
41 0 10 4 21 10 24 5 3 10 26 10 50 0 29 5 45 15 49 21 8 65 108 65 146 0 16
4 31 9 34 17 11 50 90 57 136 4 26 15 51 26 58 10 7 18 19 18 25 0 13 49 142
81 215 11 24 17 47 14 51 -2 5 4 20 15 34 11 14 20 37 20 51 0 14 11 42 25 62
27 40 28 48 16 111 -8 42 -8 43 28 60 34 17 36 21 38 73 3 63 16 140 27 158 4
7 15 12 25 12 23 0 41 19 41 44 0 11 7 28 17 38 9 10 16 33 16 50 0 18 9 41
19 53 10 11 21 31 24 45 2 14 12 45 20 70 27 75 27 87 5 119 -32 45 -28 59 18
57 45 -1 71 17 71 50 0 13 9 38 20 56 12 21 20 51 20 80 0 45 29 117 64 158
31 36 47 84 40 126 -3 24 -2 44 4 48 6 3 13 24 17 45 5 29 12 41 29 45 29 7
46 45 46 100 0 35 4 45 20 49 11 3 22 17 25 33 3 16 13 44 21 63 8 18 12 41 9
51 -4 12 3 27 20 44 14 14 25 31 25 37 0 7 14 25 32 39 28 24 33 34 33 76 1
46 3 49 31 55 16 4 48 7 72 8 23 0 50 5 60 10 9 5 25 12 34 15 10 3 20 18 24
33 7 26 19 45 70 110 17 22 23 24 41 14 38 -20 59 -12 107 39 26 28 56 50 66
50 11 0 25 9 32 20 7 11 21 20 31 20 10 0 27 15 38 34 11 19 29 36 40 39 11 3
23 14 26 25 3 12 16 22 33 25 39 8 60 33 60 73 0 38 0 38 34 23 22 -10 30 -8
64 19 23 19 42 43 45 60 5 25 9 28 36 24 22 -3 33 0 37 13 4 9 17 20 29 25 14
5 26 21 30 38 4 20 14 32 29 36 13 3 29 18 35 33 7 16 23 41 37 57 23 26 28
27 51 17 23 -10 29 -9 47 8 36 36 83 71 95 71 6 0 16 9 23 20 7 11 16 20 19
20 12 0 20 -53 10 -63 -6 -6 -11 -37 -11 -69 0 -45 -5 -63 -20 -78 -22 -22
-26 -51 -9 -81 8 -16 5 -26 -16 -51 -22 -26 -25 -38 -20 -66 4 -23 2 -39 -8
-51 -24 -27 -29 -106 -10 -145 16 -34 16 -35 -15 -66 -23 -23 -32 -41 -32 -65
0 -19 -5 -37 -10 -40 -5 -3 -10 -18 -10 -33 0 -15 -7 -45 -14 -67 -10 -28 -14
-80 -13 -163 1 -80 -2 -122 -9 -122 -5 0 -21 -10 -33 -21 -17 -16 -22 -29 -17
-50 3 -16 -1 -41 -10 -58 -9 -17 -19 -64 -24 -104 -4 -39 -15 -91 -24 -114 -9
-23 -17 -71 -20 -105 -2 -36 -13 -85 -26 -113 -12 -27 -23 -61 -24 -75 -2 -14
-8 -38 -15 -54 -6 -16 -9 -37 -5 -48 3 -10 1 -24 -4 -31 -15 -20 -22 -88 -10
-110 8 -16 7 -22 -6 -29 -26 -14 -38 -47 -43 -112 -2 -33 -10 -68 -18 -76 -8
-9 -15 -33 -15 -53 0 -21 -6 -46 -12 -57 -9 -15 -10 -27 -2 -48 9 -24 8 -33
-8 -51 -10 -13 -18 -35 -18 -50 0 -15 -3 -31 -7 -35 -11 -11 -32 -78 -39 -126
-4 -25 -16 -63 -26 -84 -15 -29 -19 -52 -15 -84 3 -25 0 -58 -5 -74 -12 -35 5
-102 31 -121 9 -7 21 -25 26 -42 7 -19 18 -31 33 -33 12 -2 22 -7 22 -12 0
-17 41 -33 53 -21 6 6 23 11 37 11 28 0 50 31 50 70 0 14 7 20 23 20 29 0 53
25 62 65 4 17 13 49 21 73 8 23 14 58 14 77 0 18 5 37 11 41 8 4 9 27 5 69 -5
54 -4 64 14 80 14 13 20 31 20 61 0 39 13 81 42 138 10 19 14 39 24 131 4 27
12 58 19 70 20 31 28 100 15 124 -9 18 -7 25 14 44 25 22 46 101 50 192 1 22
5 46 9 52 10 17 20 69 21 120 1 23 9 50 18 60 25 29 45 152 30 180 -9 14 -6
22 14 38 21 17 25 30 28 87 2 37 7 72 11 78 8 14 27 130 29 182 0 23 9 45 24
60 12 14 22 34 22 46 0 12 5 42 12 66 9 35 9 51 -1 72 -10 23 -10 29 3 36 19
11 39 82 31 109 -4 11 2 38 14 62 11 23 25 80 31 127 6 47 17 91 23 98 6 8 12
58 13 113 2 83 6 103 23 125 24 31 25 33 11 70 -9 22 -6 36 15 77 27 51 35
116 20 169 -5 20 -2 32 14 49 15 16 21 36 21 68 0 25 7 59 15 75 8 15 15 40
15 55 0 15 7 51 16 81 9 29 14 65 11 79 -3 13 2 35 10 47 8 13 13 31 11 41 -1
10 4 33 11 51 11 25 11 39 2 58 -16 37 -14 60 10 75 24 16 41 79 43 154 1 35
8 59 22 77 12 15 24 49 28 77 3 27 13 54 21 61 9 7 15 29 15 51 0 27 9 51 29
79 16 22 32 60 35 84 4 24 14 50 21 56 8 7 15 17 15 23 0 6 7 18 15 27 24 27
24 110 0 145 -11 17 -22 39 -25 50 -4 12 -16 21 -31 23 -17 2 -31 14 -44 37
-18 35 -56 48 -71 24 -3 -6 -16 -8 -29 -5 -26 7 -50 -16 -60 -56 -4 -15 -10
-27 -14 -26 -22 2 -33 -8 -66 -62 -22 -36 -34 -67 -31 -77 4 -10 -2 -24 -14
-35 -12 -11 -20 -32 -20 -50 0 -18 -8 -41 -18 -52 -23 -25 -67 -160 -57 -175
3 -6 -2 -23 -13 -39 -19 -26 -43 -119 -57 -215 -5 -36 -2 -54 10 -73 17 -26
13 -44 -10 -44 -24 0 -43 -41 -50 -105 -4 -33 -12 -75 -18 -92 -8 -25 -8 -42
2 -69 17 -46 5 -59 -49 -56 -40 3 -41 2 -62 -48 -19 -46 -22 -49 -38 -35 -9 8
-22 15 -28 15 -23 0 -111 -61 -117 -81 -4 -11 -9 -18 -12 -15 -10 10 -65 -28
-74 -51 -5 -13 -17 -23 -28 -23 -27 0 -114 -99 -129 -146 -17 -52 -71 -89
-108 -72 -20 10 -29 8 -52 -8 -15 -11 -34 -34 -42 -52 -10 -21 -20 -30 -31
-26 -22 6 -75 -39 -83 -70 -4 -16 -15 -25 -37 -30 -22 -4 -34 -14 -42 -36 -9
-23 -17 -30 -39 -30 -22 0 -32 -7 -45 -34 -12 -26 -25 -37 -52 -43 -35 -9 -39
-13 -57 -82 -3 -10 -8 -11 -18 -2 -18 15 -71 -14 -85 -46 -6 -13 -15 -23 -21
-23 -6 0 -15 -11 -20 -25 -7 -18 -17 -25 -35 -25 -36 0 -65 -17 -65 -38 0 -10
-6 -27 -14 -38 -14 -18 -16 -18 -32 -2 -17 17 -17 19 16 53 19 19 42 35 52 35
33 0 58 36 57 83 -1 52 9 99 26 112 16 13 35 50 35 69 0 8 -12 28 -26 45 l-26
31 41 0 c54 0 77 31 62 84 -7 28 -6 36 3 36 19 0 46 34 46 58 0 12 -7 36 -16
55 -16 33 -16 33 18 68 71 76 75 85 83 164 5 59 11 77 26 85 21 12 49 70 49
102 0 11 -12 42 -27 69 l-27 48 36 33 c46 41 102 142 94 170 -3 14 4 32 20 51
20 24 24 37 20 61 -5 26 -2 33 16 41 29 13 36 71 14 114 -24 45 -20 59 24 81
22 11 41 24 42 28 6 32 3 181 -4 195 -16 31 -1 61 40 80 48 21 67 57 52 101
-7 23 -6 49 4 100 8 37 16 69 18 69 37 18 43 28 46 68 2 24 9 51 17 59 20 23
29 95 14 121 -9 18 -9 24 3 33 30 22 36 49 26 109 -9 51 -7 64 13 115 13 31
25 80 26 107 2 28 5 75 8 105 3 30 5 100 4 155 0 83 -3 105 -20 127 -12 17
-19 44 -19 72 0 47 -23 76 -61 76 -14 0 -16 8 -12 43 5 41 3 46 -33 76 -22 17
-50 35 -64 38 -14 3 -30 13 -37 22 -11 14 -15 15 -40 1 -23 -13 -34 -14 -68
-4 -55 17 -90 17 -105 -1z"/>
<path d="M10148 12396 c-17 -26 -28 -34 -41 -30 -37 12 -68 -5 -87 -49 -11
-23 -20 -53 -20 -67 0 -14 -7 -34 -15 -44 -8 -11 -15 -30 -15 -42 0 -12 -9
-33 -21 -48 -14 -18 -19 -36 -16 -54 4 -19 -1 -32 -19 -49 -17 -15 -24 -33
-24 -57 0 -22 -6 -38 -16 -44 -9 -5 -20 -27 -24 -48 -18 -83 -29 -116 -43
-132 -9 -9 -19 -35 -22 -57 -4 -22 -12 -48 -17 -58 -5 -11 -11 -43 -13 -73 -2
-30 -8 -60 -13 -67 -16 -19 -42 -99 -42 -130 0 -15 -4 -35 -9 -45 -15 -27 -41
-118 -41 -144 0 -13 -7 -32 -15 -42 -8 -11 -15 -28 -15 -38 0 -28 -31 -111
-51 -137 -11 -13 -19 -34 -19 -46 0 -12 -7 -28 -15 -35 -8 -7 -15 -23 -15 -35
0 -12 -7 -29 -16 -36 -12 -10 -15 -24 -10 -55 4 -35 2 -45 -19 -64 -13 -12
-29 -36 -35 -53 -7 -18 -17 -42 -22 -54 -6 -12 -11 -30 -13 -40 -1 -10 -6 -29
-12 -44 -6 -14 -9 -37 -6 -52 3 -16 1 -27 -6 -27 -15 0 -61 -75 -61 -102 0
-12 -7 -29 -16 -39 -23 -26 -43 -88 -44 -136 0 -30 -5 -45 -18 -52 -28 -15
-72 -104 -72 -146 0 -27 -7 -44 -25 -61 -16 -15 -25 -34 -25 -53 0 -19 -11
-43 -30 -64 -16 -19 -30 -38 -30 -42 0 -8 -88 -184 -141 -280 -21 -38 -38 -80
-38 -92 -1 -13 -5 -23 -10 -23 -15 0 -41 -60 -48 -107 -4 -29 -11 -44 -24 -48
-11 -4 -22 -18 -25 -33 -7 -33 -22 -77 -40 -119 -8 -17 -14 -35 -14 -40 0 -4
-8 -13 -19 -20 -19 -12 -81 -114 -81 -134 0 -7 -15 -30 -33 -53 -18 -23 -41
-58 -52 -80 -11 -21 -32 -51 -47 -67 -16 -15 -28 -34 -28 -42 0 -7 -27 -36
-60 -62 -33 -26 -60 -53 -60 -58 0 -6 -3 -8 -6 -5 -3 3 0 26 6 49 11 45 15 56
44 122 9 22 14 48 10 63 -6 25 5 65 33 117 9 16 12 39 9 53 -4 13 -1 34 5 46
6 11 11 48 11 82 1 33 4 68 8 76 5 8 10 81 13 162 4 130 3 150 -14 177 -18 30
-18 31 2 66 17 29 20 44 14 78 -4 23 -8 71 -10 107 -5 130 -16 233 -27 254 -6
11 -13 37 -14 56 -5 58 -15 114 -24 135 -5 11 -16 46 -26 78 -9 32 -21 60 -25
63 -5 3 -9 16 -9 30 0 27 -26 85 -44 96 -6 4 -21 8 -33 8 -20 0 -23 5 -23 44
0 47 -25 84 -80 118 -30 18 -128 41 -142 32 -5 -3 -22 -7 -37 -8 -16 -1 -42
-13 -58 -26 -17 -14 -44 -36 -61 -49 -33 -26 -57 -68 -67 -113 -3 -16 -12 -28
-20 -28 -7 0 -17 -10 -21 -22 -3 -13 -26 -50 -49 -83 -56 -80 -78 -123 -72
-146 3 -11 -4 -24 -19 -33 -15 -10 -25 -29 -29 -53 -7 -42 -7 -42 -52 -107
-19 -26 -33 -60 -33 -75 0 -19 -8 -34 -23 -44 -33 -21 -54 -89 -38 -124 12
-27 3 -42 -25 -43 -6 0 -19 -9 -29 -20 -14 -15 -16 -30 -12 -62 4 -28 1 -48
-7 -58 -8 -8 -18 -28 -23 -45 -6 -18 -27 -42 -51 -58 -25 -17 -45 -39 -48 -55
-4 -15 -13 -36 -20 -47 -8 -11 -14 -31 -14 -46 0 -15 -6 -32 -14 -38 -8 -7
-17 -23 -20 -36 -4 -14 -20 -32 -36 -40 -17 -9 -30 -20 -30 -25 0 -6 -4 -10
-10 -10 -14 0 -12 22 6 76 8 25 17 78 19 118 3 70 16 115 42 147 8 9 15 27 17
40 2 23 17 80 38 148 6 19 12 53 13 75 1 23 8 56 16 74 11 25 11 38 1 64 -10
28 -9 33 13 54 26 24 27 27 25 178 0 22 -8 51 -17 65 -10 14 -22 35 -28 46 -7
13 -23 21 -45 23 -18 2 -45 12 -58 23 -44 34 -77 18 -97 -49 -8 -26 -48 -72
-63 -72 -16 0 -52 -50 -52 -72 0 -10 -10 -32 -21 -48 -13 -17 -19 -35 -15 -46
4 -10 -4 -34 -19 -60 -14 -23 -25 -50 -25 -59 0 -9 -7 -23 -15 -31 -8 -9 -15
-26 -15 -38 0 -13 -7 -29 -15 -36 -8 -7 -15 -19 -15 -26 0 -8 -4 -22 -9 -32
-31 -60 -43 -103 -37 -136 6 -29 4 -35 -15 -41 -23 -8 -53 -69 -45 -92 3 -7 2
-21 -3 -31 -22 -45 -35 -91 -35 -128 0 -30 -4 -40 -14 -37 -15 6 -52 -25 -52
-44 0 -7 -7 -25 -16 -38 -9 -13 -13 -29 -9 -34 3 -6 -1 -24 -10 -41 -9 -17
-13 -35 -10 -40 4 -6 -7 -22 -24 -36 -27 -23 -31 -32 -31 -76 0 -46 -4 -54
-39 -87 -26 -25 -40 -47 -44 -74 -3 -21 -17 -51 -31 -68 -14 -17 -26 -36 -26
-44 0 -7 -7 -26 -15 -41 -8 -16 -15 -52 -15 -80 0 -32 -5 -54 -12 -58 -72 -35
-98 -68 -98 -123 0 -32 -21 -63 -43 -63 -7 0 -26 -26 -44 -58 -18 -31 -46 -73
-64 -92 -17 -19 -36 -46 -41 -60 -5 -14 -27 -37 -49 -52 -33 -23 -50 -28 -102
-28 -60 0 -63 1 -84 35 -13 19 -23 43 -23 52 -1 10 -6 28 -13 40 -8 15 -12 56
-10 114 2 66 -2 99 -13 121 -14 27 -14 32 1 54 12 19 16 50 16 132 0 167 -1
184 -11 203 -14 26 -12 143 2 157 15 15 39 239 28 266 -7 20 11 94 36 151 60
135 107 279 99 304 -3 10 4 29 16 45 13 16 24 47 26 74 3 26 12 61 21 79 15
30 15 35 -1 68 l-17 35 34 38 c28 31 35 49 45 117 6 44 11 94 11 110 0 17 2
56 5 87 4 53 3 60 -25 92 -17 18 -30 39 -30 45 0 25 -48 43 -97 35 -54 -7
-103 -29 -103 -45 0 -6 -22 -34 -49 -62 -44 -46 -54 -67 -85 -162 -20 -61 -36
-118 -36 -127 0 -9 -4 -19 -9 -22 -4 -3 -14 -27 -21 -53 -6 -27 -16 -57 -20
-68 -5 -11 -12 -48 -15 -83 -4 -36 -17 -82 -30 -105 -12 -23 -26 -60 -30 -82
-3 -22 -13 -59 -21 -83 -8 -23 -14 -72 -14 -108 0 -55 -4 -71 -24 -95 -15 -17
-27 -48 -31 -77 -4 -26 -15 -59 -26 -74 -11 -16 -19 -44 -19 -67 0 -33 -4 -42
-27 -53 -14 -7 -29 -20 -33 -28 -4 -8 -17 -34 -29 -56 -11 -23 -21 -51 -21
-62 0 -12 -5 -24 -10 -27 -19 -12 -50 -84 -50 -117 0 -26 -6 -37 -29 -49 -16
-9 -31 -29 -35 -44 -4 -16 -16 -40 -27 -53 -11 -15 -19 -40 -19 -63 0 -32 -4
-39 -20 -39 -20 0 -40 -27 -40 -54 0 -8 -11 -31 -24 -51 -14 -20 -28 -50 -32
-67 -4 -20 -25 -48 -55 -76 -27 -24 -49 -50 -49 -57 0 -8 -6 -18 -13 -22 -12
-8 -34 -39 -67 -94 -39 -66 -55 -87 -83 -102 -16 -10 -31 -26 -34 -37 -3 -11
-10 -20 -17 -20 -6 0 -21 -16 -34 -35 -15 -24 -30 -35 -46 -35 -15 0 -34 -12
-49 -30 -14 -16 -34 -30 -45 -30 -11 0 -25 -7 -32 -15 -7 -9 -15 -13 -18 -11
-2 3 -14 0 -26 -6 -54 -29 -140 -10 -151 35 -6 22 -15 166 -15 235 0 40 -14
69 -37 76 -10 3 -26 26 -36 50 -14 33 -25 45 -45 49 -15 3 -37 8 -49 12 -18 6
-26 1 -40 -24 -13 -23 -25 -31 -46 -31 -38 0 -54 -36 -40 -94 9 -41 8 -45 -24
-79 -31 -35 -33 -40 -31 -112 0 -45 6 -82 14 -93 7 -9 14 -42 14 -72 0 -71 16
-126 43 -153 22 -22 67 -109 67 -130 0 -29 150 -140 167 -123 3 3 22 -4 41
-16 28 -17 38 -19 53 -10 13 9 31 9 60 3 34 -8 44 -6 59 9 11 11 22 14 32 9
10 -5 31 -1 57 12 23 11 45 17 50 15 5 -3 14 1 21 9 7 8 19 15 26 15 8 0 20
11 26 25 8 18 19 25 40 25 15 0 28 4 28 9 0 5 17 18 37 28 26 14 41 30 47 51
7 25 15 32 33 32 13 0 26 7 29 15 4 8 12 15 19 15 23 0 65 60 65 91 0 37 16
69 35 69 7 0 22 11 33 25 11 14 25 25 31 25 22 0 69 52 85 95 10 24 28 51 42
59 13 9 24 26 24 37 0 12 11 34 25 51 14 16 25 36 25 44 0 18 38 74 62 92 10
7 20 28 24 47 3 19 10 35 14 35 5 0 12 9 15 20 9 28 57 100 66 100 5 0 6 -6 3
-14 -3 -8 2 -31 11 -50 12 -25 15 -45 9 -64 -4 -15 -8 -66 -7 -115 0 -74 3
-92 21 -116 18 -25 20 -34 11 -60 -9 -25 -7 -38 10 -74 12 -24 21 -48 21 -54
0 -6 8 -21 19 -34 10 -13 22 -39 25 -56 7 -32 79 -103 105 -103 6 0 11 -5 11
-11 0 -16 63 -69 83 -69 10 0 28 -7 40 -15 12 -8 48 -17 79 -21 56 -6 56 -6
73 26 l17 32 24 -23 c21 -20 28 -21 44 -11 11 6 26 9 33 6 15 -5 40 15 57 47
6 10 17 19 25 19 8 0 21 14 30 30 13 25 22 30 50 30 29 0 39 6 57 35 13 19 30
37 39 40 9 3 25 22 35 43 10 20 29 45 41 55 12 9 25 28 29 40 4 12 10 24 13
27 14 10 51 78 51 93 0 8 7 17 15 21 8 3 15 13 15 23 0 13 3 14 12 5 16 -16
-7 -114 -32 -137 -12 -11 -20 -31 -20 -48 0 -30 -14 -82 -32 -123 -6 -12 -7
-35 -4 -51 5 -21 2 -34 -9 -43 -8 -7 -15 -22 -15 -34 0 -11 -7 -39 -15 -61 -8
-22 -14 -55 -15 -73 0 -18 -5 -41 -12 -52 -10 -15 -9 -26 5 -55 22 -47 22 -53
-8 -67 -28 -13 -47 -60 -39 -95 4 -14 1 -30 -9 -41 -16 -19 -27 -64 -31 -132
-1 -25 -8 -65 -15 -90 -22 -79 -22 -84 -13 -125 9 -39 8 -41 -41 -86 l-51 -46
-2 -69 c-2 -38 -3 -72 -3 -76 -1 -5 -8 -8 -16 -8 -22 0 -47 -44 -40 -72 4 -16
-1 -31 -14 -47 -12 -13 -21 -37 -21 -53 0 -16 -7 -40 -16 -54 -11 -16 -15 -36
-11 -60 5 -27 1 -40 -14 -55 -23 -23 -24 -40 -4 -105 18 -60 12 -84 -20 -84
-30 0 -60 -41 -52 -72 4 -15 -2 -29 -19 -45 -22 -20 -25 -30 -20 -58 5 -27 2
-39 -14 -55 -21 -21 -29 -93 -11 -104 20 -13 18 -58 -3 -84 -45 -55 -68 -102
-63 -129 3 -15 -1 -36 -8 -47 -7 -12 -18 -52 -25 -91 -7 -38 -16 -80 -21 -93
-13 -33 -11 -126 3 -140 9 -9 6 -21 -12 -54 -15 -26 -25 -63 -27 -97 -2 -31
-6 -71 -9 -89 -5 -24 -2 -38 11 -52 12 -13 16 -28 12 -47 -4 -15 -9 -42 -13
-59 -7 -36 17 -91 44 -101 9 -4 22 -13 28 -21 12 -16 84 -43 95 -37 4 3 12 -2
19 -10 31 -38 100 6 100 64 1 29 38 110 62 134 9 9 21 49 28 89 6 40 18 87 25
103 15 33 25 74 30 120 2 17 10 51 19 77 9 26 14 58 11 71 -4 16 1 36 14 58
13 21 21 51 21 80 0 25 4 49 9 55 14 13 41 119 46 177 2 27 9 54 15 62 15 18
42 126 35 143 -3 8 2 24 12 34 12 14 17 34 16 66 -1 25 5 59 14 75 9 19 13 43
10 64 -4 25 -2 35 12 43 19 10 30 46 36 116 2 23 8 51 14 62 13 25 14 91 2
112 -7 10 -2 18 18 31 23 14 30 28 40 80 7 35 12 78 12 94 0 37 16 101 36 139
12 21 14 44 9 91 -6 59 -5 63 19 79 14 9 25 25 25 35 0 10 9 26 20 36 11 10
20 27 20 37 0 10 7 29 15 42 9 13 15 39 14 57 -2 19 3 44 9 56 7 12 12 32 12
45 1 13 17 40 40 63 22 22 40 45 40 53 0 7 7 23 15 36 12 18 14 37 9 80 -4 31
-11 59 -15 62 -23 14 -7 32 28 32 48 0 59 17 68 98 5 52 4 69 -8 82 -23 26 -4
52 38 52 38 0 65 22 65 52 0 12 7 29 16 39 9 10 22 42 30 71 20 82 37 121 63
147 17 17 22 30 17 51 -3 18 0 33 9 40 8 7 15 18 15 25 0 8 11 27 26 44 23 27
25 37 22 103 -3 66 -1 73 15 70 26 -4 67 25 67 47 0 10 7 24 15 31 12 10 15
10 15 -3 0 -23 46 -110 70 -132 11 -10 20 -22 20 -27 0 -5 33 -42 72 -83 56
-58 79 -75 100 -75 17 0 28 -5 28 -13 0 -21 30 -43 80 -62 25 -9 55 -22 67
-27 16 -8 26 -8 37 1 11 9 22 7 50 -10 20 -12 45 -19 56 -16 11 3 22 1 25 -3
6 -9 45 -12 145 -11 69 1 86 1 187 -1 29 -1 63 3 75 9 13 6 46 16 73 22 28 7
59 21 71 32 11 10 27 19 35 19 9 0 34 17 57 38 23 21 53 44 67 50 28 13 65 67
65 95 0 9 7 17 15 17 19 0 75 55 75 74 0 7 9 21 20 31 21 19 27 7 11 -23 -34
-62 -63 -140 -68 -182 -3 -29 -16 -63 -29 -82 -13 -17 -24 -44 -24 -58 0 -14
-7 -36 -16 -48 -12 -18 -14 -35 -9 -68 6 -40 3 -48 -18 -68 -30 -28 -41 -92
-27 -165 9 -49 8 -55 -14 -82 -30 -36 -33 -122 -6 -164 15 -23 16 -31 4 -65
-8 -22 -11 -53 -8 -69 7 -35 69 -106 84 -96 5 3 10 0 10 -8 0 -8 8 -25 19 -38
17 -21 22 -22 46 -11 22 10 30 10 48 -3 34 -24 63 -19 76 13 6 15 22 32 34 37
16 7 23 20 25 49 2 21 11 50 20 64 11 16 17 51 19 96 3 91 12 147 27 165 6 8
12 33 12 55 1 23 3 75 4 116 2 60 6 77 21 88 11 7 19 23 19 36 0 13 5 36 10
53 7 19 7 38 1 55 -7 20 -4 36 14 74 14 27 25 56 25 64 0 8 12 38 25 65 14 28
25 65 25 84 0 18 5 51 12 72 9 31 16 39 34 39 19 0 30 14 60 78 20 42 40 84
45 92 34 61 69 140 69 158 0 11 5 24 11 28 6 3 27 31 47 62 20 30 45 67 54 81
10 14 23 37 29 51 6 14 17 37 25 52 8 14 14 36 14 47 0 12 6 21 14 21 8 0 24
12 36 28 76 98 110 147 110 157 0 7 11 17 24 23 13 6 32 26 42 45 36 66 79
115 106 121 14 3 49 27 76 54 52 51 124 85 160 75 19 -5 38 -52 33 -83 -4 -26
-8 -101 -15 -244 -6 -123 -9 -141 -26 -153 -16 -11 -20 -26 -20 -68 0 -30 -4
-57 -10 -60 -5 -3 -10 -21 -10 -38 0 -18 -7 -41 -15 -51 -8 -11 -15 -29 -15
-40 0 -12 -9 -48 -20 -80 -11 -33 -20 -78 -20 -101 0 -22 -5 -46 -12 -53 -7
-7 -15 -36 -20 -64 -17 -119 -33 -204 -40 -214 -4 -6 -8 -31 -9 -55 -1 -24 -6
-74 -12 -111 -9 -58 -8 -73 8 -107 17 -39 17 -41 -4 -76 -12 -21 -21 -53 -21
-78 0 -23 -2 -91 -4 -152 -2 -71 1 -117 9 -130 6 -11 12 -45 13 -75 3 -85 44
-180 78 -180 7 0 14 -10 16 -22 3 -19 68 -68 68 -51 0 4 7 -2 15 -14 15 -21
57 -25 84 -9 7 5 22 -1 36 -14 22 -21 42 -24 132 -19 32 1 48 9 67 29 23 26
26 27 66 17 36 -10 43 -9 51 6 6 9 21 17 35 17 18 0 28 8 37 28 16 39 86 98
110 94 19 -4 67 33 67 50 0 5 29 38 64 73 35 35 67 76 70 91 4 15 20 39 36 54
29 27 30 27 24 5 -3 -14 1 -36 11 -53 17 -27 17 -30 0 -55 -14 -22 -16 -40
-10 -112 4 -47 11 -88 16 -91 5 -3 9 -16 9 -29 0 -13 4 -26 9 -29 4 -3 11 -19
15 -36 3 -17 18 -43 33 -58 16 -15 33 -36 38 -47 6 -11 22 -21 37 -23 14 -2
40 -19 57 -38 17 -19 40 -34 51 -34 10 0 22 -5 26 -11 3 -6 16 -8 27 -5 11 3
35 -1 51 -9 17 -7 47 -18 67 -25 42 -13 278 -11 295 2 7 5 33 9 58 10 26 0 49
4 52 9 6 11 61 35 96 43 38 9 95 47 107 74 6 12 19 22 29 22 22 0 92 65 92 85
0 8 8 19 18 24 10 5 27 26 37 45 11 20 24 34 30 32 15 -5 45 13 45 27 0 7 26
40 59 74 56 59 83 116 66 143 -4 6 8 10 28 10 42 0 77 43 77 95 0 31 3 35 25
35 15 0 28 7 32 18 4 9 28 47 55 83 26 37 48 71 48 77 0 5 7 15 15 22 8 7 15
18 15 25 0 7 18 40 40 73 22 33 40 69 40 81 0 11 4 21 10 21 5 0 19 21 31 48
12 26 37 77 56 115 19 37 33 78 31 90 -1 13 7 32 20 45 12 12 22 30 22 40 0
10 4 22 8 27 14 17 33 92 26 108 -3 9 1 26 10 39 9 12 16 31 16 41 0 10 7 25
15 33 8 9 15 31 15 49 0 38 22 65 52 65 11 0 37 14 58 30 21 17 48 30 60 30
31 0 90 62 90 94 0 23 3 25 28 20 22 -5 35 1 59 23 17 15 47 43 67 61 20 19
36 40 36 48 0 8 5 14 10 14 16 0 24 -30 11 -43 -6 -6 -11 -25 -11 -41 -1 -44
-22 -116 -43 -147 -24 -36 -38 -87 -31 -115 3 -13 -1 -33 -11 -48 -9 -14 -18
-42 -19 -63 -1 -21 -7 -47 -13 -59 -7 -11 -9 -30 -6 -42 3 -12 -5 -42 -18 -69
-17 -36 -24 -66 -24 -118 -1 -53 -7 -82 -23 -114 -13 -24 -21 -50 -17 -59 3
-8 1 -20 -4 -26 -13 -16 -31 -110 -31 -160 0 -28 -6 -48 -16 -57 -12 -10 -15
-24 -10 -60 4 -29 2 -50 -4 -54 -26 -16 -43 -82 -42 -168 0 -74 -2 -89 -17
-97 -10 -5 -23 -22 -29 -37 -27 -74 -42 -140 -42 -183 0 -26 -7 -64 -16 -85
-8 -21 -13 -44 -9 -53 5 -14 -3 -36 -37 -106 -14 -28 -38 -123 -38 -153 0 -14
-7 -46 -15 -72 -16 -52 -65 -305 -65 -336 1 -23 -17 -115 -31 -161 -5 -17 -9
-47 -9 -68 0 -20 -7 -50 -15 -66 -10 -20 -13 -43 -9 -68 5 -33 1 -46 -25 -82
-17 -24 -31 -51 -31 -61 0 -10 -5 -39 -12 -64 -9 -35 -10 -53 -1 -76 11 -29
10 -34 -16 -60 -27 -27 -36 -54 -45 -144 -2 -16 -5 -37 -8 -45 -17 -44 -30
-111 -24 -125 3 -9 -1 -26 -9 -39 -8 -12 -17 -43 -19 -69 -3 -25 -9 -54 -14
-64 -6 -9 -8 -41 -5 -69 4 -39 1 -58 -11 -75 -9 -13 -16 -36 -16 -52 0 -16 -5
-38 -12 -50 -18 -35 -40 -167 -39 -238 1 -48 -3 -70 -14 -79 -9 -7 -15 -29
-15 -54 0 -23 -5 -47 -12 -54 -18 -18 -37 -169 -27 -206 14 -49 11 -102 -7
-117 -29 -24 -36 -58 -19 -92 14 -28 14 -35 1 -62 -26 -57 -33 -100 -30 -185
2 -47 5 -132 7 -189 2 -93 5 -105 25 -121 12 -10 22 -27 22 -39 0 -22 36 -52
55 -45 6 3 20 -6 29 -20 21 -32 51 -33 71 -2 9 13 29 26 45 29 16 4 31 15 34
25 4 11 15 30 26 42 18 21 26 63 21 114 -1 10 6 29 14 42 8 13 15 45 15 71 0
26 7 57 15 67 8 11 15 41 15 67 0 26 5 51 10 54 6 3 10 22 10 41 0 20 5 45 12
57 6 12 12 58 13 102 1 55 6 88 18 105 9 14 19 52 23 85 4 33 11 66 17 73 5 7
7 33 3 59 -4 33 -2 51 8 62 7 9 16 39 19 68 5 42 2 56 -14 76 -10 14 -19 33
-19 44 1 39 30 98 59 121 28 21 31 29 31 78 0 30 7 71 16 92 9 20 16 62 16 92
1 30 7 64 14 75 7 11 16 41 18 65 11 95 26 188 41 255 8 39 19 97 24 130 25
163 41 274 45 315 11 92 45 257 60 294 9 21 16 49 16 61 0 12 7 28 15 35 18
15 19 52 3 96 -11 30 -9 34 30 71 37 35 42 45 42 83 0 28 7 51 18 64 20 22 52
114 52 150 0 11 7 30 15 40 8 11 15 35 15 53 0 19 7 45 16 58 9 14 14 32 10
40 -3 9 0 18 8 21 8 3 21 25 31 50 13 35 15 51 6 76 -16 47 -13 65 12 72 29 7
57 55 57 99 0 20 5 39 10 42 6 3 10 26 10 49 0 48 10 72 53 128 23 29 28 45
26 79 -3 34 1 46 26 70 33 33 35 32 59 -33 9 -25 24 -49 31 -52 8 -3 15 -17
15 -32 0 -36 30 -84 57 -91 13 -3 26 -16 29 -29 9 -35 89 -87 149 -96 77 -13
79 -13 95 -23 8 -6 39 -15 67 -21 49 -10 54 -9 75 13 19 21 23 21 38 8 27 -25
97 -19 125 10 14 13 25 31 25 40 0 19 14 19 30 0 19 -23 59 -19 71 8 8 17 17
23 33 20 16 -3 32 5 54 26 17 17 35 31 40 31 6 0 24 14 42 30 18 17 35 30 39
30 10 0 71 60 71 71 0 14 65 79 79 79 6 0 16 11 21 24 5 14 21 32 35 42 14 9
25 22 25 28 0 6 9 19 20 29 11 9 20 26 20 37 0 11 6 20 13 20 17 0 73 63 93
105 9 19 27 41 40 50 28 18 31 10 7 -18 -14 -15 -18 -35 -17 -87 2 -94 9 -115
43 -129 22 -10 30 -21 35 -49 6 -43 31 -82 51 -82 7 0 32 -17 55 -37 23 -21
47 -38 54 -38 6 -1 24 -9 39 -19 23 -16 34 -17 63 -8 27 8 34 7 34 -3 0 -41
177 -166 214 -152 9 4 21 -2 28 -11 19 -26 69 -62 78 -57 4 2 15 -4 25 -15 10
-11 26 -20 35 -20 9 0 25 -9 35 -20 10 -12 24 -19 31 -16 7 3 20 -5 31 -16 10
-11 44 -33 76 -48 31 -15 64 -33 72 -40 12 -10 21 -10 42 -1 14 6 26 10 27 9
19 -45 36 -64 68 -73 20 -5 47 -20 60 -32 14 -13 31 -23 40 -23 9 0 21 -7 28
-15 7 -8 29 -15 50 -15 24 0 43 -7 55 -20 10 -11 24 -20 30 -20 7 0 18 -6 24
-14 7 -8 26 -18 44 -22 17 -3 46 -15 64 -25 38 -21 64 -24 80 -8 7 7 15 3 26
-14 16 -24 53 -38 114 -42 18 -1 41 -9 51 -18 11 -10 22 -13 32 -7 8 5 21 5
31 0 9 -5 37 -12 60 -15 24 -3 61 -8 81 -11 29 -5 39 -2 44 10 9 23 43 20 64
-6 16 -20 21 -21 40 -10 14 8 26 10 33 4 15 -12 184 -7 200 5 7 5 28 9 47 8
l35 -2 1 -84 c0 -46 4 -98 8 -115 4 -20 2 -45 -8 -70 -21 -58 -28 -133 -14
-170 10 -28 9 -36 -6 -52 -28 -32 -20 -142 16 -219 32 -68 50 -81 83 -59 21
14 24 13 40 -4 10 -11 26 -20 35 -20 28 0 59 43 66 92 5 37 11 48 29 52 46 12
101 201 74 258 -9 21 -8 30 6 52 14 21 19 55 22 155 3 118 2 130 -17 154 -20
25 -20 28 -6 49 9 12 16 32 16 44 0 12 7 25 16 28 19 7 90 -28 106 -54 7 -11
21 -20 31 -20 52 0 117 -91 117 -164 0 -20 5 -46 11 -57 8 -16 7 -29 -6 -56
-14 -29 -15 -43 -7 -71 7 -20 7 -42 3 -51 -5 -9 -9 -55 -10 -103 l-1 -87 58
-59 c46 -48 63 -59 90 -60 24 0 37 6 48 24 9 14 26 24 39 24 27 0 55 51 55
101 0 21 9 42 24 58 20 21 26 44 35 118 8 68 8 98 0 117 -9 20 -8 32 5 60 14
31 15 41 2 101 l-14 66 22 -18 c65 -55 75 -70 95 -143 16 -57 28 -80 51 -98
16 -13 30 -29 30 -36 0 -24 47 -58 70 -51 14 4 28 1 39 -9 20 -19 48 -12 56
12 3 10 18 24 34 33 20 12 30 27 36 55 4 22 11 44 16 50 5 7 9 26 9 43 0 17 0
46 0 64 1 108 -98 328 -151 336 -29 4 -34 11 -54 79 -9 28 -20 52 -26 52 -6 0
-26 16 -45 36 -28 30 -39 36 -62 31 -23 -5 -30 -1 -44 24 -10 17 -25 29 -37
29 -20 0 -20 1 -3 37 9 21 25 45 35 55 9 10 17 23 17 28 0 6 29 47 65 93 36
45 68 93 72 106 3 13 14 32 24 42 11 11 19 30 19 44 0 13 6 28 14 32 17 10 46
67 46 91 0 11 7 25 15 32 8 7 15 18 15 25 0 8 8 28 17 47 9 18 20 41 25 51 15
32 37 101 43 142 4 22 13 55 22 73 8 18 13 48 12 65 -2 18 1 39 6 47 5 8 11
44 12 80 1 36 5 88 9 115 4 28 6 147 6 265 -1 118 -1 239 -2 268 0 29 -5 63
-12 75 -7 12 -13 55 -15 96 -1 57 -6 80 -22 102 -14 19 -21 43 -21 74 0 58
-35 167 -61 191 -14 13 -18 25 -14 45 4 19 -1 34 -20 57 -14 16 -25 38 -25 49
0 10 -4 23 -8 28 -5 6 -14 28 -20 51 -7 25 -21 45 -36 53 -32 18 -38 46 -15
67 13 11 19 31 19 56 0 30 4 41 19 45 10 2 25 20 34 39 11 21 24 34 36 34 11
0 49 30 86 66 65 64 67 68 76 132 9 60 8 69 -11 94 -12 16 -30 49 -40 73 -11
25 -26 45 -33 45 -8 0 -20 6 -26 14 -7 9 -32 14 -62 14 -49 1 -51 0 -66 -36
-8 -20 -16 -38 -18 -40 -1 -2 -19 5 -39 14 -45 22 -45 40 -2 98 60 78 97 158
90 194 -4 22 -1 40 10 57 27 41 36 113 20 155 -16 40 -70 79 -120 87 -31 5
-35 3 -48 -27 -8 -19 -16 -28 -20 -21 -19 31 -76 2 -90 -45 -4 -14 -13 -20
-24 -18 -22 5 -31 -2 -66 -53 -20 -30 -27 -49 -22 -67 5 -20 0 -28 -29 -46
-25 -15 -38 -33 -47 -63 -6 -23 -29 -69 -50 -101 -25 -40 -38 -72 -38 -95 -1
-44 -21 -74 -44 -65 -9 3 -28 -1 -42 -11 -14 -9 -27 -15 -28 -13 -1 2 -7 15
-14 31 -6 15 -22 31 -34 36 -29 11 -53 82 -38 110 8 15 7 208 -1 336 0 11 2
55 5 97 4 42 3 79 -2 82 -10 6 -7 230 3 246 9 15 -5 108 -18 123 -7 6 -12 32
-12 57 0 33 -9 59 -30 93 -17 26 -36 47 -42 47 -7 0 -13 5 -13 10 0 15 -50 12
-56 -3 -3 -8 -18 -14 -35 -14 -42 0 -89 -55 -89 -104 0 -12 -7 -30 -16 -40
-22 -25 -39 -200 -27 -284 6 -40 6 -85 1 -113 -12 -60 -12 -77 0 -132 6 -25 6
-52 2 -61 -15 -26 -10 -382 5 -430 5 -14 -1 -16 -40 -12 -25 3 -51 1 -58 -5
-7 -6 -36 -9 -64 -7 -47 4 -54 2 -72 -21 -17 -22 -24 -24 -35 -14 -27 22 -96
-15 -96 -52 0 -22 -4 -22 -36 -2 -20 14 -30 15 -49 6 -14 -7 -25 -19 -25 -28
0 -14 -7 -15 -44 -10 -27 4 -47 3 -51 -4 -3 -5 -23 -10 -43 -10 -27 0 -41 -7
-57 -26 -19 -23 -24 -25 -42 -14 -26 17 -51 7 -63 -25 -5 -14 -18 -28 -27 -31
-10 -3 -26 -10 -35 -15 -11 -5 -18 -5 -18 0 0 5 -8 12 -17 16 -17 6 -42 -16
-68 -59 -11 -19 -75 -39 -122 -37 -17 0 -38 -5 -45 -12 -15 -13 -47 -33 -89
-54 -14 -7 -38 -24 -53 -38 -15 -14 -31 -25 -36 -25 -5 0 -24 -22 -41 -49 -29
-44 -35 -48 -56 -40 -31 12 -26 14 -64 -22 -18 -17 -44 -35 -56 -40 -12 -4
-25 -19 -28 -32 -5 -19 -11 -23 -34 -19 -24 3 -32 -2 -47 -27 -10 -17 -24 -31
-32 -31 -7 0 -29 -16 -49 -35 -20 -19 -43 -35 -51 -35 -9 0 -36 -22 -62 -50
-26 -27 -50 -50 -55 -50 -5 0 -15 -7 -24 -15 -34 -30 -59 -51 -106 -90 -28
-21 -52 -42 -55 -46 -45 -60 -128 -149 -140 -149 -5 0 -16 -13 -25 -30 -8 -16
-26 -37 -40 -46 -13 -8 -29 -30 -35 -47 -6 -18 -23 -40 -41 -50 -17 -9 -36
-31 -42 -47 -6 -17 -18 -32 -27 -35 -14 -5 -80 -94 -80 -109 0 -3 -15 -22 -34
-41 -19 -19 -36 -47 -38 -62 -2 -19 -12 -32 -30 -41 -16 -7 -28 -18 -28 -24 0
-6 -15 -27 -32 -47 -18 -20 -42 -50 -53 -65 -11 -16 -41 -57 -66 -90 -26 -34
-54 -76 -63 -94 -9 -18 -18 -32 -19 -32 -2 0 -3 27 -2 60 0 33 3 60 7 60 4 0
15 14 24 31 13 26 14 37 4 57 -9 21 -8 27 4 34 38 21 61 128 37 167 -7 11 -3
21 14 37 17 15 25 38 30 78 4 31 5 60 2 63 -4 3 1 19 9 35 9 16 13 37 10 45
-4 9 -2 21 3 27 5 6 10 56 10 111 1 55 1 114 2 130 2 40 1 127 -1 200 -1 54
-4 63 -33 86 l-31 27 13 96 c13 97 7 144 -23 185 -6 8 -9 24 -8 36 3 25 -47
128 -76 156 -9 9 -29 37 -44 63 -15 25 -34 46 -43 46 -8 0 -15 7 -15 15 0 8
-12 22 -27 32 -16 10 -31 21 -34 26 -3 5 -27 6 -52 2 -38 -6 -51 -3 -76 14
-34 25 -56 26 -95 6 -15 -8 -36 -15 -46 -15 -26 0 -180 -121 -186 -146 -3 -12
-15 -24 -25 -27 -11 -3 -25 -19 -31 -35 -6 -16 -21 -33 -32 -38 -14 -6 -25
-25 -32 -53 -6 -28 -21 -54 -40 -70 -34 -30 -64 -74 -64 -94 0 -8 -7 -20 -15
-27 -8 -7 -15 -23 -15 -37 0 -29 -16 -61 -42 -86 -10 -10 -21 -32 -25 -48 -3
-15 -12 -34 -19 -40 -8 -6 -14 -18 -14 -25 0 -8 -14 -36 -30 -62 -23 -37 -29
-57 -24 -79 5 -25 2 -31 -15 -36 -22 -5 -27 2 -12 19 12 14 32 151 25 178 -3
14 1 37 10 54 12 24 15 47 10 94 -3 35 -10 70 -14 78 -4 8 -10 32 -14 52 -7
39 -36 64 -62 54 -9 -3 -24 5 -37 19 -31 36 -97 43 -137 15 -16 -11 -31 -29
-35 -39 -3 -10 -16 -23 -29 -29 -15 -7 -27 -23 -31 -44 -8 -36 -39 -92 -67
-120 -10 -10 -18 -25 -18 -34 0 -9 -9 -27 -20 -41 -11 -14 -20 -32 -20 -39 0
-8 -9 -23 -20 -34 -13 -13 -20 -33 -20 -61 0 -37 -3 -41 -37 -55 -39 -16 -93
-61 -93 -77 0 -5 -22 -31 -50 -57 -27 -26 -54 -59 -59 -74 -6 -14 -16 -26 -23
-26 -16 -1 -50 -29 -67 -55 -12 -19 -12 -18 -6 5 3 14 11 108 17 208 9 160 8
189 -5 220 -9 21 -19 60 -22 87 -7 52 -21 108 -36 137 -5 10 -9 23 -9 29 0 6
-13 28 -30 49 -16 21 -30 45 -30 55 0 9 -22 40 -50 69 -27 29 -50 57 -50 63 0
11 -98 77 -115 78 -5 0 -22 9 -37 19 -19 12 -39 17 -60 13 -24 -3 -39 1 -56
16 -13 12 -37 22 -55 24 -18 1 -52 4 -77 6 -24 3 -52 0 -62 -7 -13 -8 -21 -7
-30 2 -18 18 -42 15 -63 -8 -12 -13 -25 -18 -40 -14 -13 3 -26 1 -29 -5 -4 -6
-20 -11 -35 -11 -49 0 -101 -66 -101 -128 0 -19 -8 -32 -28 -43 -23 -13 -33
-31 -50 -85 -32 -106 -44 -169 -41 -213 4 -46 -16 -78 -37 -60 -8 6 -14 22
-14 34 0 13 -8 33 -19 46 -17 21 -22 22 -45 11 -15 -7 -37 -12 -49 -12 -13 0
-28 -5 -35 -12 -9 -9 -18 -9 -38 1 -22 10 -31 9 -51 -4 -13 -9 -28 -27 -33
-39 -5 -13 -13 -25 -17 -27 -16 -7 -73 -100 -73 -119 0 -10 -6 -25 -12 -32
-49 -52 -62 -84 -60 -136 3 -51 2 -53 -28 -63 -32 -12 -50 -35 -50 -65 0 -10
-8 -27 -18 -38 -20 -23 -92 -201 -92 -228 0 -9 -5 -20 -11 -23 -19 -13 -91
-175 -93 -212 -1 -21 -7 -38 -16 -41 -7 -3 -25 -16 -38 -29 -19 -19 -23 -32
-20 -66 3 -39 1 -43 -29 -56 -34 -15 -37 -21 -47 -82 -4 -24 -14 -39 -29 -46
-12 -6 -28 -23 -36 -39 -7 -16 -24 -50 -37 -76 -13 -27 -24 -56 -24 -66 0 -15
-32 -65 -95 -147 -39 -52 -44 -62 -45 -92 0 -23 -8 -38 -29 -55 -16 -13 -39
-48 -52 -78 -13 -30 -34 -63 -46 -73 -13 -10 -23 -27 -23 -37 0 -11 -6 -23
-14 -27 -30 -18 -116 -133 -116 -157 0 -19 -4 -23 -20 -19 -14 4 -24 -3 -37
-26 -10 -17 -23 -31 -30 -31 -6 0 -22 -13 -35 -28 -13 -16 -29 -27 -35 -25 -6
2 -29 -7 -50 -20 -47 -29 -80 -38 -102 -27 -9 5 -23 11 -31 13 -13 4 -15 27
-12 143 1 77 2 161 2 187 0 27 4 56 9 66 6 10 13 51 17 92 4 41 9 90 11 109 2
19 5 49 6 67 2 18 10 39 17 48 8 9 17 38 21 63 4 26 15 74 24 107 10 36 14 74
11 100 -6 41 16 122 49 171 8 13 15 44 15 69 0 26 5 56 12 68 6 12 13 50 14
84 2 34 8 73 15 85 13 24 16 49 24 193 3 50 8 120 11 156 4 46 2 78 -9 110 -9
27 -13 62 -10 90 5 43 3 48 -26 70 -26 19 -31 29 -31 65 0 26 -7 51 -20 67
-11 14 -20 29 -20 34 0 13 -85 73 -104 73 -8 0 -18 5 -21 11 -4 5 -17 9 -28 7
-12 -1 -27 1 -34 5 -30 19 -210 3 -244 -22 -14 -10 -46 -28 -72 -40 -30 -14
-51 -31 -57 -47 -6 -14 -14 -23 -20 -19 -5 3 -18 -3 -29 -14 -11 -11 -29 -25
-41 -31 -11 -6 -23 -24 -26 -40 -4 -20 -15 -32 -34 -38 -17 -6 -43 -34 -69
-73 -24 -36 -51 -64 -61 -65 -9 -1 -22 -4 -29 -8 -14 -9 -3 23 15 44 20 24 44
101 44 144 0 25 8 47 23 66 19 22 25 45 30 105 6 62 12 83 32 107 14 16 25 39
25 50 0 11 8 35 19 52 10 17 29 65 41 106 13 41 33 84 46 96 12 11 25 32 28
45 8 27 19 53 51 124 35 77 48 117 51 160 6 62 27 128 52 159 12 16 22 43 22
60 0 17 13 58 30 91 16 32 37 84 46 115 8 30 20 62 25 70 5 8 12 22 15 30 3 8
19 50 36 93 17 43 28 81 24 84 -3 4 0 13 8 22 19 21 46 99 46 134 0 15 7 39
16 52 9 14 14 34 11 44 -3 12 3 27 14 37 11 10 19 30 19 51 0 20 8 41 20 53
11 11 20 30 20 43 0 12 11 45 25 72 13 28 25 63 25 78 0 16 5 38 12 50 14 26
18 61 23 220 4 107 3 119 -15 137 -11 11 -26 20 -34 20 -8 0 -17 13 -21 29 -8
37 -20 47 -67 56 -34 6 -38 4 -60 -29z m7722 -2251 c6 -4 18 -1 26 6 11 9 18
9 32 -4 13 -12 34 -16 72 -15 74 3 146 -10 160 -27 7 -8 22 -15 35 -15 13 0
27 -10 35 -25 8 -14 23 -28 34 -31 12 -3 32 -21 46 -41 14 -19 34 -45 46 -57
12 -11 26 -31 33 -43 7 -14 21 -23 34 -23 33 0 47 -19 47 -61 0 -21 8 -47 20
-62 11 -14 20 -30 20 -37 0 -6 16 -18 35 -26 25 -10 35 -21 36 -37 0 -12 3
-31 6 -42 3 -11 5 -33 4 -48 0 -30 56 -167 69 -167 4 0 8 -20 8 -45 1 -24 8
-57 16 -73 8 -16 17 -64 20 -108 9 -121 12 -137 25 -162 9 -16 9 -32 3 -55 -6
-18 -9 -101 -8 -185 2 -84 -1 -155 -6 -158 -5 -3 -6 -29 -3 -58 6 -43 3 -59
-14 -87 -12 -19 -21 -48 -21 -64 0 -17 -7 -40 -15 -53 -19 -26 -45 -108 -45
-139 0 -13 -4 -23 -10 -23 -13 0 -40 -54 -40 -80 0 -11 -5 -20 -11 -20 -5 0
-16 -15 -24 -34 -8 -19 -19 -37 -25 -41 -5 -3 -10 -17 -10 -29 0 -45 -60 -151
-91 -161 -10 -4 -21 -16 -25 -29 -3 -12 -15 -26 -27 -31 -12 -6 -26 -19 -32
-31 -27 -54 -61 -94 -82 -94 -13 0 -31 -13 -44 -32 -30 -43 -54 -60 -105 -75
-27 -9 -45 -21 -52 -38 -9 -20 -17 -25 -32 -20 -27 9 -58 -2 -64 -23 -5 -14
-17 -17 -56 -16 -28 0 -53 -3 -56 -8 -3 -4 -16 -8 -29 -8 -13 0 -30 -9 -38
-20 -12 -18 -18 -19 -42 -10 -33 13 -93 7 -150 -14 -25 -9 -44 -11 -50 -5 -16
15 -97 10 -117 -7 -13 -13 -21 -14 -31 -5 -21 17 -174 12 -189 -6 -10 -12 -14
-11 -29 8 -15 20 -25 23 -72 21 -38 -2 -58 2 -67 13 -18 22 -73 18 -104 -6
-31 -24 -38 -20 -64 32 -15 31 -22 34 -64 37 -35 2 -51 8 -58 23 -6 11 -21 19
-36 19 -14 0 -32 7 -40 15 -9 8 -27 15 -41 15 -14 0 -41 13 -59 30 -19 16 -47
33 -62 36 -15 4 -38 15 -52 24 -14 10 -36 21 -50 25 -14 4 -32 13 -40 20 -8 7
-28 20 -45 29 -16 9 -43 25 -60 36 -16 11 -54 31 -82 45 -29 15 -55 30 -58 36
-4 5 -17 9 -31 9 -13 0 -24 4 -24 10 0 21 -62 42 -105 36 -41 -7 -42 -6 -51
25 -5 18 -18 37 -29 43 -11 5 -33 19 -48 29 -16 10 -34 16 -41 14 -7 -3 -25 8
-40 24 -18 18 -38 29 -55 29 -17 0 -37 10 -52 26 -16 17 -31 24 -46 21 -18 -3
-28 4 -44 29 -11 19 -29 34 -39 34 -9 0 -23 7 -30 15 -7 8 -16 15 -21 15 -4 0
-25 11 -45 25 -20 14 -41 22 -46 19 -5 -3 -15 0 -23 6 -17 14 -69 5 -86 -16
-13 -16 -49 -19 -49 -4 0 10 47 78 95 136 14 18 25 37 25 42 0 6 6 15 14 19
21 12 86 119 86 142 0 34 12 51 35 51 29 0 34 7 43 62 7 36 11 43 28 40 15 -2
32 11 57 42 21 24 37 47 37 49 0 3 14 19 30 37 17 18 30 36 30 41 0 6 18 27
40 48 22 21 40 47 40 58 0 12 8 23 21 26 11 3 25 19 32 36 6 17 15 31 20 31 5
0 34 27 65 60 32 33 61 60 66 60 7 0 34 27 107 106 15 16 33 35 40 41 8 7 25
24 38 37 13 13 29 22 36 19 15 -5 42 22 88 85 26 36 35 42 57 37 21 -5 33 2
63 32 63 64 91 87 111 88 10 1 26 11 35 22 9 11 28 23 43 27 28 6 68 66 68
101 0 20 10 19 25 -1 15 -21 72 -13 101 14 10 10 36 25 56 35 20 10 40 26 43
37 4 11 15 20 25 20 10 0 22 5 25 10 4 6 15 8 26 5 14 -5 24 1 37 24 9 17 22
31 28 31 6 0 18 7 25 16 10 13 24 15 66 10 44 -5 54 -3 62 12 17 31 65 82 77
82 7 0 26 -8 42 -17 25 -14 32 -15 46 -4 9 7 16 20 16 27 0 14 16 16 113 19
21 0 41 5 45 10 15 21 79 36 107 25 20 -8 32 -7 48 5 11 8 30 12 42 9 11 -3
33 1 48 9 27 14 96 15 117 2z m-9819 -111 c30 -15 31 -16 24 -73 -5 -45 -3
-61 9 -73 9 -10 15 -32 14 -59 -1 -56 10 -186 19 -219 7 -24 8 -60 14 -315 1
-62 -3 -128 -10 -152 -7 -27 -8 -55 -3 -81 7 -28 6 -44 -4 -57 -8 -10 -14 -32
-14 -47 0 -16 -4 -36 -10 -46 -5 -9 -14 -46 -20 -82 -6 -36 -14 -81 -17 -100
-3 -19 -14 -41 -24 -48 -11 -7 -19 -23 -19 -35 0 -12 -15 -39 -34 -60 -19 -21
-40 -52 -46 -68 -9 -20 -19 -29 -36 -29 -13 0 -29 -9 -36 -20 -8 -12 -24 -20
-40 -20 -17 0 -33 -8 -40 -19 -11 -19 -13 -18 -43 5 -18 13 -37 24 -43 24 -7
0 -12 4 -12 10 0 5 -10 12 -22 15 -13 4 -34 25 -48 47 -14 22 -37 52 -52 66
-14 14 -24 31 -21 39 7 19 -5 80 -20 95 -33 35 -51 173 -29 215 7 12 12 35 12
52 0 21 5 31 15 31 21 0 37 37 33 77 -4 29 0 38 25 55 27 19 29 25 25 69 -4
33 -1 50 8 53 6 2 17 21 24 40 6 20 17 36 25 36 21 0 65 66 65 98 0 19 8 35
21 44 20 13 49 76 49 109 0 9 7 19 15 23 8 3 24 25 34 48 11 24 25 57 33 73 7
17 30 56 51 87 20 31 37 65 37 76 0 10 7 27 15 38 8 10 15 24 15 31 0 17 19
63 25 63 3 0 20 -7 36 -16z m6665 -109 c26 -50 42 -95 43 -118 1 -22 8 -51 17
-66 13 -22 14 -40 6 -106 -5 -49 -6 -90 0 -105 5 -13 6 -36 2 -50 -4 -14 -9
-70 -10 -125 -3 -99 -16 -205 -28 -224 -3 -5 -8 -22 -11 -38 -4 -28 -13 -64
-35 -153 -6 -25 -9 -58 -7 -74 3 -22 -2 -35 -19 -50 -21 -19 -67 -125 -81
-186 -3 -14 -14 -36 -24 -49 -11 -13 -19 -32 -19 -41 0 -10 -19 -44 -43 -76
-23 -33 -48 -71 -56 -86 -8 -15 -22 -30 -32 -33 -10 -4 -29 -23 -41 -44 -13
-21 -29 -36 -36 -33 -18 6 -69 -17 -76 -34 -3 -7 -12 -11 -19 -8 -8 3 -40 -4
-71 -15 l-57 -20 -58 37 c-51 33 -60 44 -83 102 -45 116 -64 249 -38 265 6 3
10 23 10 44 0 21 6 44 14 50 8 7 21 35 30 64 9 29 21 61 26 72 22 51 70 186
70 199 0 8 8 29 17 48 30 61 33 67 39 107 4 22 15 48 25 57 11 9 19 28 19 41
0 14 9 36 20 50 11 14 20 32 20 40 0 8 9 26 20 40 11 14 20 38 20 52 0 15 8
31 20 39 15 9 20 23 20 58 0 52 29 109 59 117 13 3 35 36 60 88 22 46 49 92
61 101 11 10 20 27 20 38 0 12 9 24 23 29 12 5 40 26 61 46 57 52 73 46 122
-50z m-2234 16 c14 7 23 6 34 -6 8 -8 25 -15 37 -15 57 0 157 -60 157 -94 0
-8 7 -19 15 -26 8 -7 15 -21 15 -32 0 -11 5 -29 12 -41 13 -24 16 -43 21 -162
2 -49 -2 -97 -10 -124 -8 -24 -13 -68 -12 -97 1 -29 -2 -59 -8 -66 -6 -7 -14
-36 -18 -65 l-7 -52 -66 6 c-37 3 -68 10 -70 15 -2 4 -12 8 -22 8 -16 0 -75
25 -120 51 -8 5 -31 18 -51 28 -20 11 -49 35 -64 52 l-27 33 5 160 c5 161 22
302 37 321 5 6 11 27 15 48 10 54 26 67 72 57 22 -5 44 -5 55 1z m-522 -486
c-16 -20 -5 -211 16 -277 25 -74 54 -138 64 -138 5 0 12 -10 15 -22 4 -13 19
-35 34 -50 14 -14 32 -33 39 -42 7 -9 24 -16 37 -16 17 0 29 -9 39 -29 17 -33
76 -71 109 -71 13 0 31 -9 40 -21 10 -11 24 -18 32 -15 7 2 19 -2 25 -10 7 -8
21 -14 32 -14 10 0 31 -6 46 -14 15 -7 44 -16 65 -20 31 -6 37 -11 32 -24 -4
-9 -9 -26 -12 -37 -7 -29 -15 -49 -87 -205 -13 -30 -30 -66 -36 -80 -6 -14
-16 -34 -23 -45 -56 -94 -67 -117 -67 -139 0 -15 -7 -27 -19 -31 -18 -6 -51
-60 -51 -85 0 -7 -11 -21 -25 -32 -14 -11 -25 -25 -25 -32 0 -7 -9 -21 -20
-31 -11 -10 -20 -29 -20 -42 0 -14 -6 -23 -15 -23 -16 0 -75 -75 -75 -97 0 -7
-7 -13 -15 -13 -17 0 -55 -56 -55 -82 0 -10 -6 -18 -13 -18 -8 0 -42 -36 -78
-80 -35 -44 -68 -80 -74 -80 -5 0 -28 -16 -50 -35 -64 -57 -68 -59 -100 -73
-97 -43 -212 -58 -298 -39 -16 3 -40 1 -55 -4 -20 -8 -29 -7 -37 5 -6 8 -29
22 -51 30 l-39 16 3 63 c2 34 3 76 4 92 0 17 7 67 15 113 9 55 11 94 5 115 -8
28 -6 37 14 60 18 22 23 36 20 70 -3 29 2 52 16 74 11 18 18 43 17 55 -2 13 2
33 9 45 7 12 12 30 12 40 0 10 7 31 15 47 8 15 15 36 15 46 0 9 6 30 14 46 8
16 20 52 27 79 6 28 18 63 26 78 8 15 13 43 11 63 -1 19 2 38 8 42 16 11 52
80 73 142 36 107 43 125 57 153 8 16 14 36 14 45 0 9 21 44 45 76 25 33 45 67
45 77 0 9 7 22 15 29 18 15 115 198 115 217 0 7 7 16 15 19 8 3 20 24 25 45 6
21 19 47 28 56 10 10 27 35 37 56 19 37 20 38 23 12 2 -14 -2 -32 -8 -40z
m-4879 -492 c-16 -30 -20 -34 -21 -16 0 12 5 25 10 28 6 3 10 18 10 33 1 23 2
24 11 10 7 -13 4 -27 -10 -55z m-41 -145 c0 -13 -7 -36 -15 -52 -8 -15 -15
-35 -15 -44 0 -12 -3 -13 -12 -4 -9 9 -7 16 7 32 12 13 19 35 18 55 -1 19 3
35 8 35 5 0 9 -10 9 -22z m-1651 -432 c7 -8 8 -17 3 -20 -6 -3 -12 3 -15 14
-6 24 -4 25 12 6z"/>
<path d="M17938 9554 c-4 -3 -31 -8 -60 -11 -38 -3 -58 -10 -71 -25 -13 -16
-21 -18 -29 -10 -17 17 -35 15 -55 -7 -10 -10 -30 -21 -45 -25 -27 -6 -48 -46
-48 -92 0 -13 -5 -24 -10 -24 -14 0 -83 -66 -115 -110 -17 -23 -25 -47 -25
-74 0 -47 -5 -55 -42 -78 -14 -10 -29 -28 -33 -40 -3 -13 -11 -40 -17 -61 -9
-29 -9 -46 -1 -68 9 -23 8 -29 -2 -29 -32 0 -51 -106 -47 -265 2 -77 2 -107 2
-146 0 -21 8 -47 20 -62 13 -16 20 -40 20 -68 0 -26 7 -50 18 -62 9 -10 26
-37 37 -60 11 -22 29 -45 40 -51 10 -6 27 -20 36 -31 14 -16 20 -18 42 -8 24
11 30 9 72 -32 25 -24 45 -49 45 -54 0 -6 11 -13 25 -17 16 -4 28 -17 35 -39
12 -37 27 -46 59 -38 12 3 21 1 21 -6 0 -6 18 -20 40 -31 46 -23 83 -19 105
13 14 19 16 20 33 4 26 -24 43 -21 82 13 19 16 42 29 50 30 20 0 85 71 105
112 8 18 23 47 33 63 26 43 54 123 48 133 -3 5 3 17 14 27 11 10 22 33 26 51
3 19 10 37 15 40 25 15 60 139 63 224 1 25 7 56 13 70 6 14 9 27 8 30 -4 7
-18 192 -19 257 -1 29 -7 58 -14 65 -6 6 -12 21 -12 33 0 12 -7 30 -15 41 -8
10 -15 28 -15 40 0 11 -7 29 -15 40 -8 10 -15 30 -15 44 -1 31 -22 60 -43 60
-10 0 -23 15 -31 35 -10 23 -22 35 -34 35 -25 0 -73 45 -90 84 -12 26 -16 28
-51 23 -34 -4 -40 -2 -55 24 -9 16 -25 29 -34 29 -9 0 -26 3 -37 6 -11 3 -24
2 -27 -2z"/>
<path d="M5838 12163 c-8 -10 -18 -26 -21 -35 -4 -10 -12 -18 -20 -18 -15 0
-83 -76 -107 -119 -8 -15 -25 -40 -38 -55 -12 -16 -22 -34 -22 -41 0 -7 -6
-18 -14 -24 -8 -7 -17 -23 -21 -38 -3 -14 -22 -46 -41 -71 -18 -25 -34 -53
-34 -62 0 -9 -9 -28 -21 -41 -17 -20 -20 -32 -15 -68 5 -33 2 -49 -10 -62 -11
-13 -14 -27 -10 -46 4 -15 11 -45 15 -67 9 -42 24 -56 58 -56 13 0 28 -12 41
-34 30 -51 112 -58 112 -10 0 8 10 14 23 14 12 0 27 4 32 8 17 11 54 80 59
107 6 32 42 79 51 65 9 -15 41 -12 55 5 7 8 23 15 37 15 13 0 26 7 30 16 3 8
15 19 27 24 13 5 29 28 42 61 41 107 46 127 35 165 -8 31 -7 40 10 63 11 16
25 46 30 69 10 46 -2 130 -22 142 -7 5 -17 23 -23 41 -10 30 -16 34 -61 41
-27 5 -57 12 -65 16 -30 17 -96 13 -112 -5z"/>
</g>
</svg>
