<?xml version="1.0" standalone="no"?>
<!DOCTYPE svg PUBLIC "-//W3C//DTD SVG 20010904//EN"
 "http://www.w3.org/TR/2001/REC-SVG-20010904/DTD/svg10.dtd">
<svg version="1.0" xmlns="http://www.w3.org/2000/svg"
 width="810.000000pt" height="810.000000pt" viewBox="0 0 810.000000 810.000000"
 preserveAspectRatio="xMidYMid meet">

<g transform="translate(0.000000,810.000000) scale(0.100000,-0.100000)"
fill="#000000" stroke="none">
<path d="M3787 7292 c-46 -50 -70 -210 -57 -372 10 -124 13 -140 47 -242 31
-90 62 -135 88 -125 20 8 20 3 -25 278 -37 221 -46 330 -30 389 16 62 17 82 4
87 -6 2 -18 -5 -27 -15z"/>
<path d="M3412 7191 c-22 -13 -33 -134 -23 -245 21 -216 96 -462 158 -519 26
-23 57 -12 49 17 -4 11 -17 71 -31 131 -13 61 -45 189 -70 285 -28 108 -47
203 -49 248 -4 77 -12 97 -34 83z"/>
<path d="M5172 7077 c-99 -31 -159 -168 -150 -340 5 -103 34 -166 96 -214 59
-45 111 -58 227 -58 179 1 226 55 228 260 1 104 -13 141 -66 174 -70 43 -101
15 -41 -37 38 -32 39 -35 37 -92 -2 -85 -22 -169 -44 -191 -35 -35 -213 -23
-268 18 -66 50 -91 143 -71 262 26 156 113 197 290 138 74 -25 104 -21 84 10
-15 25 -188 83 -244 82 -25 -1 -60 -6 -78 -12z"/>
<path d="M2198 7023 c-21 -23 -23 -38 -57 -308 -16 -126 -35 -261 -42 -299
l-12 -69 -18 24 c-37 48 -101 181 -149 311 -62 168 -87 191 -156 149 -71 -43
-125 -186 -185 -485 -21 -110 -41 -202 -44 -204 -12 -12 -66 28 -145 108 -70
69 -94 102 -130 175 -50 100 -59 110 -78 91 -11 -11 -9 -24 13 -77 44 -106
110 -201 195 -283 94 -90 137 -114 178 -100 33 11 48 55 115 334 26 110 58
215 78 259 l35 75 43 -118 c71 -190 191 -366 250 -366 35 0 70 41 85 103 17
64 41 308 52 512 4 93 10 135 21 147 8 9 12 22 8 27 -10 17 -40 13 -57 -6z"/>
<path d="M4325 7005 c-97 -34 -166 -166 -168 -323 -1 -142 55 -218 195 -264
54 -18 86 -21 228 -20 189 1 235 8 235 37 0 18 -12 21 -155 32 -329 26 -400
65 -400 219 0 92 23 166 65 212 l34 37 88 0 c99 0 152 -19 215 -74 40 -35 53
-38 62 -16 8 22 -53 86 -112 118 -97 53 -210 69 -287 42z"/>
<path d="M2685 6964 c-47 -24 -71 -52 -97 -107 -20 -45 -23 -68 -23 -172 0
-104 3 -127 23 -170 30 -65 66 -102 127 -131 57 -27 159 -33 189 -11 17 13 17
14 1 30 -10 10 -32 17 -58 17 -49 0 -122 33 -144 66 -8 13 -21 41 -28 62 l-13
37 53 6 c74 9 124 37 162 92 35 52 58 141 48 187 -9 40 -42 80 -81 96 -44 19
-122 18 -159 -2z m136 -94 c43 -23 9 -159 -51 -202 -14 -9 -44 -20 -67 -24
l-43 -7 0 50 c0 62 25 148 51 174 21 21 78 26 110 9z"/>
<path d="M5923 6728 c5 -118 6 -124 33 -146 35 -30 58 -25 155 39 89 58 115
62 123 19 3 -16 9 -43 12 -59 9 -51 33 -63 115 -59 l73 3 9 -30 c15 -48 22
-59 50 -75 24 -13 28 -13 44 3 17 17 17 19 -3 35 -14 11 -24 33 -27 61 -8 66
-43 96 -110 96 l-53 0 -12 50 c-17 70 -59 110 -115 109 -50 -1 -86 -18 -152
-73 -27 -23 -55 -41 -61 -41 -6 0 -16 33 -23 73 -19 116 -20 117 -43 117 -21
0 -21 -2 -15 -122z"/>
<path d="M6857 6649 c-20 -11 -49 -37 -63 -58 -46 -69 -55 -240 -18 -344 48
-135 309 -393 427 -421 37 -9 50 20 19 43 -12 9 -42 32 -68 50 -45 34 -182
193 -241 281 -40 60 -53 102 -53 170 l0 58 38 -14 c46 -17 132 -17 153 -1 26
20 39 53 39 99 0 121 -125 194 -233 137z m127 -90 c19 -15 26 -30 26 -56 l0
-35 -65 4 c-36 2 -70 9 -76 15 -15 15 15 71 44 83 33 13 42 12 71 -11z"/>
<path d="M3963 6323 l-20 -58 -134 -15 c-122 -14 -134 -17 -134 -35 0 -18 11
-21 127 -34 l128 -14 6 -36 c17 -106 74 -171 148 -171 65 0 76 36 21 69 -22
13 -43 37 -55 63 -26 58 -26 78 3 78 34 1 104 36 116 58 18 33 14 62 -8 62
-11 0 -23 -4 -26 -10 -3 -5 -33 -10 -66 -10 l-60 0 6 55 c7 51 6 55 -13 55
-16 0 -25 -13 -39 -57z"/>
<path d="M4483 6291 c-4 -18 -7 -18 -39 -5 -82 34 -146 -2 -159 -90 -25 -167
139 -271 259 -165 87 76 89 207 3 259 -40 25 -58 25 -64 1z m37 -91 c24 -13
16 -42 -22 -81 -58 -58 -118 -28 -118 60 l0 44 60 -6 c34 -4 69 -11 80 -17z"/>
<path d="M5248 5959 c-67 -37 -286 -492 -276 -575 3 -30 35 -47 42 -22 17 64
41 113 120 243 84 140 155 288 156 326 0 24 -22 39 -42 28z"/>
<path d="M3601 5783 c-26 -102 -19 -303 13 -384 6 -13 -6 -18 -66 -29 -111
-19 -290 -65 -365 -93 -90 -34 -193 -64 -319 -92 l-103 -23 -36 34 c-67 63
-483 291 -511 280 -27 -10 -11 -31 76 -101 149 -120 262 -189 374 -229 14 -5
-4 -18 -80 -56 -54 -28 -117 -55 -139 -61 -53 -14 -307 -140 -384 -189 -33
-22 -99 -57 -146 -80 -74 -35 -104 -59 -228 -176 -237 -226 -259 -255 -333
-434 -62 -149 -32 -235 55 -162 l34 28 24 -20 c14 -12 62 -57 107 -101 98 -95
202 -181 310 -255 43 -30 112 -82 153 -115 169 -134 202 -157 352 -241 86 -47
201 -112 256 -142 55 -31 114 -67 130 -80 157 -124 418 -235 674 -285 l53 -11
-6 -40 c-3 -23 -9 -97 -12 -166 -7 -135 3 -184 33 -178 38 7 44 44 37 212 l-6
159 33 -6 c19 -4 68 -11 109 -18 41 -6 125 -24 185 -40 123 -32 280 -49 462
-49 l123 0 -11 -23 c-8 -17 -7 -38 3 -78 11 -48 16 -54 41 -57 18 -2 29 2 34
14 6 16 -21 108 -39 131 -12 14 -10 15 167 38 72 10 177 30 235 45 156 40 404
108 495 135 44 12 114 33 155 45 91 26 170 57 230 89 25 13 74 39 110 57 36
18 98 57 138 88 72 55 92 65 92 47 0 -11 150 -103 232 -141 36 -17 93 -36 127
-42 54 -10 64 -10 78 5 16 15 15 18 -2 37 -26 29 -117 70 -267 120 -71 24
-128 46 -128 51 0 7 53 53 245 213 214 179 344 325 415 466 12 25 30 54 40 65
36 39 35 70 -2 108 -18 19 -72 79 -120 133 -48 55 -112 123 -143 152 -30 29
-55 57 -55 61 0 5 69 28 153 51 169 47 237 73 262 100 69 76 -141 36 -369 -69
l-89 -41 -61 46 c-34 26 -79 64 -101 84 -52 47 -123 99 -287 209 -73 49 -146
101 -162 114 l-30 24 65 36 c35 20 129 66 209 102 197 91 314 152 336 176 15
17 16 21 3 34 -22 23 -110 -3 -254 -74 -114 -56 -340 -197 -377 -235 -20 -20
-32 -15 -146 58 -37 24 -85 51 -107 61 -42 18 -210 87 -331 136 -39 15 -104
46 -145 68 -82 43 -258 103 -359 121 -160 28 -570 30 -956 3 l-72 -4 -4 28
c-3 15 -15 71 -27 123 -13 52 -26 133 -29 180 -6 68 -10 85 -24 88 -12 2 -20
-7 -27 -35z m1129 -519 c69 -14 134 -32 145 -39 24 -15 150 -214 212 -334 94
-184 163 -402 205 -646 19 -113 22 -166 22 -405 0 -239 -3 -292 -22 -405 -26
-151 -69 -318 -113 -439 -28 -78 -33 -85 -62 -91 -100 -19 -185 -41 -292 -76
-200 -64 -364 -89 -589 -89 -210 0 -336 11 -412 33 -112 34 -364 117 -433 143
-68 25 -75 31 -92 71 -47 111 -105 351 -131 543 -19 142 -16 499 5 650 56 394
194 742 395 992 41 50 52 58 106 72 34 9 142 20 246 26 102 6 208 14 235 20
28 5 140 7 250 4 164 -3 222 -9 325 -30z m-1336 -111 c-194 -295 -310 -634
-354 -1033 -6 -52 -11 -183 -11 -290 1 -262 27 -465 88 -684 27 -100 36 -120
67 -155 l21 -24 -34 7 c-38 7 -270 118 -316 151 -50 35 -121 74 -315 173 -102
51 -198 106 -215 121 -27 25 -107 90 -215 173 -19 15 -57 43 -85 61 -27 19
-97 78 -155 132 -128 120 -265 235 -279 235 -5 0 -21 15 -35 32 -23 31 -27 32
-56 21 -23 -8 -30 -8 -30 0 0 24 80 135 167 234 131 147 165 174 381 302 67
40 142 87 166 106 23 18 94 61 157 95 63 35 132 74 153 88 43 26 232 96 306
113 25 5 106 32 181 59 74 27 180 58 235 69 54 12 113 25 129 30 17 5 38 10
49 10 18 1 18 0 0 -26z m1757 -27 c19 -7 57 -16 85 -20 61 -8 157 -44 222 -84
26 -16 64 -34 84 -41 20 -7 49 -22 64 -34 15 -12 69 -49 119 -82 151 -98 258
-182 437 -342 38 -35 74 -63 80 -63 18 0 186 -170 272 -274 134 -163 186 -229
186 -234 0 -13 -64 -113 -100 -157 -93 -112 -217 -240 -284 -293 -39 -30 -113
-96 -165 -145 -54 -51 -113 -97 -138 -108 -25 -11 -154 -73 -287 -138 -168
-83 -268 -125 -329 -141 -48 -13 -89 -21 -92 -19 -2 3 9 47 25 98 82 260 114
482 114 791 0 328 -35 554 -130 833 -51 147 -138 335 -160 344 -8 3 -14 9 -14
15 0 5 -13 29 -30 53 -21 30 -26 45 -17 48 19 8 22 8 58 -7z"/>
<path d="M4803 4903 c-7 -2 -13 -11 -13 -19 0 -8 -22 -41 -49 -75 -121 -150
-169 -339 -87 -339 24 0 49 21 44 36 -1 5 8 34 21 64 l23 55 76 1 c83 0 129
16 156 56 20 28 21 90 2 126 -36 68 -123 116 -173 95z m84 -110 c7 -18 13 -36
13 -41 0 -12 -43 -29 -93 -38 l-37 -6 10 28 c16 44 33 77 49 96 18 22 38 9 58
-39z"/>
<path d="M4125 4848 c-26 -66 -31 -164 -10 -233 25 -89 108 -161 160 -141 22
8 18 40 -9 65 -13 12 -39 55 -57 94 -31 66 -34 80 -34 165 1 80 -1 92 -16 92
-10 0 -23 -16 -34 -42z"/>
<path d="M3600 4685 c-7 -9 -10 -37 -8 -70 3 -52 2 -55 -25 -66 -73 -30 -127
-115 -127 -200 0 -70 27 -86 80 -47 30 22 40 53 19 60 -5 2 9 32 31 67 l41 64
25 -54 c49 -105 133 -179 169 -149 19 16 7 46 -65 160 -66 105 -100 177 -100
211 0 31 -23 44 -40 24z"/>
<path d="M3321 4470 c-24 -14 -9 -145 25 -215 64 -132 236 -248 283 -192 14
17 6 27 -78 98 -109 93 -191 210 -191 272 0 30 -20 49 -39 37z"/>
<path d="M4305 4310 c-179 -46 -264 -209 -207 -397 41 -133 121 -191 242 -176
58 8 65 11 64 31 0 12 4 22 11 22 6 0 36 16 68 36 66 41 104 97 113 166 8 57
-11 168 -36 219 -43 84 -151 126 -255 99z m138 -112 c26 -13 55 -84 63 -150
12 -102 -22 -153 -139 -208 -31 -15 -64 -33 -72 -40 -22 -18 -73 16 -99 65
-29 55 -34 170 -11 231 36 94 172 147 258 102z"/>
<path d="M4706 3860 c-86 -95 -110 -187 -110 -426 -1 -165 1 -184 18 -203 23
-26 57 -27 79 -3 21 23 22 48 2 60 -13 7 -14 24 -9 110 l7 102 53 0 c29 0 76
5 103 11 130 28 165 138 72 222 -45 41 -112 56 -173 40 l-37 -10 15 36 c8 19
21 43 29 51 19 21 19 36 1 43 -9 4 -29 -10 -50 -33z m56 -138 c47 0 95 -28
107 -64 12 -34 5 -39 -102 -66 l-77 -20 0 32 c0 70 13 136 24 127 6 -5 28 -9
48 -9z"/>
<path d="M3915 3720 c-3 -5 8 -28 25 -51 16 -23 30 -47 30 -53 -1 -14 -254
-133 -302 -142 -52 -9 -53 -40 -2 -50 86 -16 231 24 293 81 l35 33 28 -49 c41
-71 88 -61 88 18 0 91 -161 268 -195 213z"/>
<path d="M3502 3528 c-18 -18 -14 -88 8 -133 24 -50 47 -77 95 -109 71 -48
198 -28 235 37 23 40 5 51 -61 38 -115 -23 -222 39 -238 138 -7 38 -20 48 -39
29z"/>
<path d="M2786 3018 c-33 -18 -115 -218 -136 -330 -17 -85 9 -129 50 -86 25
27 44 85 75 233 14 65 33 130 41 143 13 20 14 26 2 38 -9 9 -18 10 -32 2z"/>
<path d="M5261 2706 c-18 -22 -7 -46 22 -46 14 0 61 -25 106 -56 94 -64 138
-84 181 -84 89 0 7 93 -136 155 -106 45 -154 54 -173 31z"/>
<path d="M5181 2248 c-18 -46 -111 -355 -121 -403 -16 -76 -22 -82 -59 -55
-17 13 -44 23 -61 23 -63 0 -128 -103 -137 -218 -4 -51 -2 -64 16 -87 44 -55
123 -46 187 20 l34 35 0 -34 c1 -80 66 -159 133 -159 39 0 37 34 -4 50 -53 22
-63 50 -61 162 1 79 7 113 28 171 122 335 154 466 124 502 -20 24 -69 19 -79
-7z m-195 -519 l23 -22 -26 -51 c-31 -63 -61 -96 -85 -96 -34 0 -18 127 23
177 16 19 39 16 65 -8z"/>
<path d="M4608 2233 c-71 -81 -196 -535 -186 -674 5 -66 31 -112 67 -117 24
-4 26 9 10 56 -9 26 -6 50 16 134 33 125 70 300 91 428 8 52 24 110 35 128 10
18 19 40 19 48 0 20 -34 18 -52 -3z"/>
<path d="M2825 1987 c-90 -92 -153 -201 -219 -379 -43 -116 -47 -179 -14 -202
12 -9 29 -16 36 -16 35 0 95 42 190 134 65 63 102 93 102 82 0 -10 14 -31 31
-48 27 -28 34 -30 74 -24 128 17 277 153 369 335 28 54 28 81 2 81 -7 0 -41
-38 -74 -83 -76 -104 -170 -193 -240 -225 -29 -13 -56 -22 -59 -18 -3 3 4 42
15 87 23 87 20 109 -18 129 -30 16 -48 2 -148 -112 -103 -117 -202 -217 -202
-203 0 20 38 142 69 221 35 90 90 175 158 246 30 30 44 52 40 62 -11 29 -31
17 -112 -67z"/>
<path d="M4006 1948 c-22 -35 -34 -108 -46 -286 -13 -185 -9 -225 25 -248 48
-31 80 9 110 136 47 205 64 240 111 240 13 0 30 7 39 16 47 48 -89 62 -140 14
-13 -12 -33 -40 -43 -61 l-19 -39 -6 53 c-4 48 1 97 19 170 5 23 3 27 -15 27
-11 0 -27 -10 -35 -22z"/>
<path d="M3613 1899 c-69 -34 -118 -107 -149 -224 -27 -97 -10 -155 50 -175
77 -25 161 27 210 129 26 56 31 78 31 143 0 67 2 78 18 78 19 0 22 22 7 51
-15 27 -110 27 -167 -2z m66 -68 c20 -37 -44 -197 -89 -221 -37 -20 -43 -13
-36 40 9 66 31 127 62 167 28 37 49 42 63 14z"/>
</g>
</svg>
